<svg xmlns="http://www.w3.org/2000/svg" viewBox="0 0 512 512"><path d="M504.3,158.6c-33.4-.3-67-.4-100.6-.6l-.6-1.1a193.6,193.6,0,0,0-55.3-61.4C315.4,72.1,279,59.4,239.6,57.8l-1.7-.2h-17a7.5,7.5,0,0,0-2.6.4l-1.7.6a13.5,13.5,0,0,0-8.2,16.3A179.8,179.8,0,0,0,177,81.8a10.9,10.9,0,0,0-.7-3A13.1,13.1,0,0,0,164,70.2h-.1a16.7,16.7,0,0,0-6.2,1.2,185.1,185.1,0,0,0-19.3,8.8c-6.8,3.6-13.2,7.7-19.7,12a21.7,21.7,0,0,0-4.4,3.6,12,12,0,0,0-2.9,5.3H110a14.2,14.2,0,0,0-7.9,3.7l-3.7,3.3L91,115h-.1a200,200,0,0,0-38.1,53.2A196.1,196.1,0,0,0,41.5,315.4c0,.1.1.2.1.4l.7,1.8a8.4,8.4,0,0,0,2.4,3.4c-1.3,4.8-2.7,9.6-4.1,14.4l-13.5,9.7c-8.1,5.6-16.4,11.5-24.2,17.8a7.7,7.7,0,0,0-2.5,8.6,7.9,7.9,0,0,0,7.4,5.2H75.3a7.9,7.9,0,0,0,1.6,4.4l1.2,1.5a192.8,192.8,0,0,0,26,25.9c34.4,28.1,74.2,43.5,118.4,45.6l1.8.2h13l1.3-.2,12.1-.9a180.7,180.7,0,0,0,30.1-5.3c47.6-12.7,86-39.7,114.1-80.3a6.1,6.1,0,0,0,.7-1l.3-.5a13.3,13.3,0,0,0-3.7-17.2,13.8,13.8,0,0,0-2.4-1.4,25.4,25.4,0,0,0,1.6-2.8l1-1.7a7.8,7.8,0,0,0-6.8-11.6h-4.3a8.6,8.6,0,0,0-6.8,3.5,16.4,16.4,0,0,0-1.4,2.2,164.1,164.1,0,0,1-15.2,22.2l36.8-101.2v1.1c0,1.3,0,2.6.1,3.9a7.7,7.7,0,0,0,7.7,7.6h4a7.8,7.8,0,0,0,7.8-7.5,188.2,188.2,0,0,0-1.2-28.1A13.4,13.4,0,0,0,426,224.3h37.8a10.5,10.5,0,0,0,8.7-4.7L484.9,204l25.4-32.7a7.4,7.4,0,0,0,1.7-4.8h0A7.7,7.7,0,0,0,504.3,158.6ZM117.1,139.9c27.9-27.1,61.8-42.6,100.6-46.2,4.5-.4,9.2-.6,13.7-.6s9.2.2,13.8.6a162.7,162.7,0,0,1,114.7,61.9l1.8,2.3-147.1-.3-105.4-.2h0a7.6,7.6,0,0,0-6.1,3c-1.3,1.7-9.7,15.5-16.4,26.9-4.4,7.3-7.5,12.5-9.7,16.4A158.9,158.9,0,0,1,117.1,139.9ZM68.8,242.8c.1-.9.1-1.7.2-2.6a165,165,0,0,1,3.2-19.5l.3.6a8.1,8.1,0,0,0,6.1,2.9H207.4L200.6,241H73.7A7.8,7.8,0,0,0,68.8,242.8Zm41,67.5,4.8-13.2a8.5,8.5,0,0,0,.4-4.2h67.8c-1.1,2.8-5.3,14.4-6.4,17.3ZM253.9,425.9a8.3,8.3,0,0,0-3.5-4.1l-.4-.3-.4-.3a12,12,0,0,0-7-2.3h-.9c-3.3.2-6.7.3-10,.3a181.8,181.8,0,0,1-20.9-1.3,174,174,0,0,1-31-7.1,161.4,161.4,0,0,1-58.2-34.1h15.1c27.3,0,49.6-.1,70.3-.4h.5c22.7-1.6,42-19.5,52.8-49.1,3.7-9.4,6.8-19,9.7-28.3,1-3.2,2-6.4,3.1-9.5,2.5-7.6,2.1-15.1-1.2-20.8,13.7-9.5,19.7-27.5,24-40.4a7.8,7.8,0,0,0,.3-4h18c-7.5,21.2-15.3,42.5-23,63.2-9.5,25.8-19.3,52.5-28.4,78.8a7.8,7.8,0,0,0,7.4,10.3h71.4a166.4,166.4,0,0,1-34,23.9c-5.2,2.7-10.7,5.1-16.3,7.4l-.5.2-1.5.8-1.2.7a9.7,9.7,0,0,0-3.7,9.4A171,171,0,0,1,253.9,425.9Z" fill="#0b0b0b"/><g fill="#fff"><path d="M206.9,368.6c23.9-1.6,38.6-23.4,46.2-44.1,4.8-12.2,8.5-24.9,12.6-37.4,2.9-8.7,1-18.9-9.6-20.1,19.5-3.4,27-24.7,32.5-41.2l-38.1-9v-.2h74.6c-17.6,50.8-37.5,101.5-54.9,152.2h76l52.2-143.4c-10.1-3-19.9-5.4-29.9-8.7,31.6-.5,63.3,0,94.9.1a2.7,2.7,0,0,0,2.7-1.4c12.7-16.3,25.3-32.6,38.1-48.9h0c-131.6-1-263.3-.9-395-1.2-1.8,2.2-30.3,50.1-30.6,51.3H219l-13.2,32.3H73.7c-8.7,29.9-17.3,59.9-26,89.9a3.8,3.8,0,0,1-1.5,2.2c-12.7,9.4-26.2,18.2-38.4,28C74.2,368.6,140.5,369.6,206.9,368.6Zm-13.1-83.3c-3.9,11-8,21.9-12,32.7H98.7l8.6-23.6-31.3-9C77.2,285.1,191.7,285,193.8,285.3Z"/><path d="M96.1,376l-12.2.3H83l1.1,1.3A183.1,183.1,0,0,0,109,402.5c33.2,27.1,71.2,41.9,114,43.9l2.1.2h11.2l1.5-.2,12.2-.9a175.5,175.5,0,0,0,28.8-5.1q69-18.5,109.8-77.2l.5-.9a5.6,5.6,0,0,0-1.5-7.2,5.8,5.8,0,0,0-7.7.8,10.4,10.4,0,0,0-1.2,1.7,169.9,169.9,0,0,1-22.6,26.7c-32.9,31.6-72.2,48.3-117.7,50.8a175.8,175.8,0,0,1-37.6-2.5A178.6,178.6,0,0,1,98.5,377,2.3,2.3,0,0,0,96.1,376Z"/><path d="M219.2,76.3l2.6.5,4.1-.2a180,180,0,0,1,157.5,84.6,1.9,1.9,0,0,0,2,1.1h11.8l-.9-1.6a186.9,186.9,0,0,0-53-58.9C312.1,79.3,277.5,67.1,239,65.5l-1.9-.2H220.9l-1.7.6a5.3,5.3,0,0,0-3.5,5.1A5.4,5.4,0,0,0,219.2,76.3Z"/><path d="M49.6,314.9a5.9,5.9,0,0,1,.4-1.5l5.5-17.1a6.2,6.2,0,0,0,.1-2.7,170,170,0,0,1-4.1-34.1,178.2,178.2,0,0,1,13-70.7,181,181,0,0,1,49.6-69.2,9.3,9.3,0,0,0,1.8-1.6,5.8,5.8,0,0,0,.6-6.3,5.6,5.6,0,0,0-5.6-2.9,7.1,7.1,0,0,0-3.6,1.7c-3.6,3.4-7.3,6.6-10.9,10.1A191,191,0,0,0,48.9,313.1Z"/><path d="M59,284.8l2.6-8.2v-1c-.2-2.8-.5-5.6-.7-8.4a170.8,170.8,0,0,1,.4-27.7,174.7,174.7,0,0,1,4.6-26c8.1-30.6,23.1-57.1,45.8-79.1Q155.8,91.5,217,86a153.9,153.9,0,0,1,28.8,0,170.2,170.2,0,0,1,27.4,4.5q56.4,14.6,92.8,60.2c2.7,3.4,5.1,7.1,7.6,10.7.3.4.7.9,1,.9a16.9,16.9,0,0,0,4.5,0c-40.6-65.5-125.9-99.5-206-71C84.9,122.8,45.7,210.2,59,284.8Z"/><path d="M109.1,381.3a175.5,175.5,0,0,0,116.3,49.8c5.3.2,10.7-.2,16.1-.2a6.4,6.4,0,0,0,5.1-2.3l-1.6-1.1a4,4,0,0,0-2.8-.8,167.3,167.3,0,0,1-32.4-1.1,169.4,169.4,0,0,1-98.1-47.5c-.9-.7-1.5-2-2.6-2.4s-2.4-.1-3.7-.1a2.5,2.5,0,0,0-1.7.3C105.5,377.7,107.2,379.6,109.1,381.3Z"/><path d="M119,104.7a5.5,5.5,0,0,0,.7,2.5,5.6,5.6,0,0,0,7.7,2l1.7-1a145.7,145.7,0,0,1,20.8-12.3c5-2.5,10.1-4.5,15-6.8a9.2,9.2,0,0,0,2.7-1.6,5.2,5.2,0,0,0,1.4-6,5.4,5.4,0,0,0-5-3.6,7.2,7.2,0,0,0-3.3.7A173.1,173.1,0,0,0,142.1,87c-6.6,3.5-12.9,7.6-19.1,11.7a13,13,0,0,0-3.1,2.6,2.7,2.7,0,0,0-.9,2.5Z"/><path d="M293.5,419.1a6,6,0,0,0,2.3-.2c4.2-1.8,8.5-3.5,12.7-5.6a175.7,175.7,0,0,0,73.8-68.1c1.1-1.9,2.1-3.7,3.3-6h-4.3c-.2,0-.5.3-.6.5l-.7,1.1a170,170,0,0,1-68.8,66.5c-5.6,2.9-11.2,5.4-16.9,7.8l-1.5.8a1.8,1.8,0,0,0-.7,1.9A1.5,1.5,0,0,0,293.5,419.1Z"/><path d="M398.3,217.6c.8,5.2,1.8,10.2,2.5,15.2s1,10,1.3,15,.3,10.2.4,15.2h4a178,178,0,0,0-4.3-45.4Z"/><path d="M408.3,225a5.6,5.6,0,0,0,4.2,2.4,5.5,5.5,0,0,0,5.9-5.1,10.9,10.9,0,0,0-.8-4.7H406.2c.5,2.2,1,4.1,1.5,6.1A3.8,3.8,0,0,0,408.3,225Z"/></g></svg>