<svg xmlns="http://www.w3.org/2000/svg" viewBox="136 136 480 480"><g fill="var(--main,#000)"><path d="M171.89 346.16h-10.891c-5.684 0-9.945 4.262-9.945 9.945v80.508c0 5.684 4.262 9.945 9.945 9.945h10.891c5.684 0 9.945-4.262 9.945-9.945v-80.508c.477-5.68-4.262-9.945-9.945-9.945zm377.44-17.99h-21.785c-5.684 0-9.945 4.262-9.945 9.945v49.727h-35.52l-8.996-64.406c-4.734-18.941-35.992-65.355-71.512-65.355H350.9c-35.52 0-66.773 46.41-71.512 65.355-1.894 6.629-6.156 42.148-8.996 64.406h-35.52v-49.727c0-5.684-4.262-9.945-9.945-9.945h-22.258c-5.684 0-9.945 4.262-9.945 9.945v116.03c0 5.684 4.262 9.945 9.945 9.945h21.785c5.684 0 9.945-4.262 9.945-9.945v-49.723h35.047c1.894 7.106 8.051 12.785 15.629 13.734h2.367c8.523 0 15.629-5.684 17.996-13.734h29.363l-20.363 164.8c-1.422 11.84 7.106 22.73 18.941 24.152s22.73-7.106 24.152-18.941l18.941-151.55 18.941 151.55c1.422 10.891 10.891 18.941 21.312 18.941h2.84c11.84-1.422 20.363-12.312 18.941-24.152l-21.309-164.8h29.363c2.367 8.051 9.473 13.734 17.996 13.734h2.367c7.578-.945 13.734-6.629 15.629-13.734h35.047v49.727c0 5.684 4.262 9.945 9.945 9.945h22.258c5.684 0 9.945-4.262 9.945-9.945l-.004-116.03c0-5.207-4.734-9.945-10.418-9.945zM307.8 387.842l7.578-55.41c1.422-5.684 8.996-17.051 17.523-26.047l1.422 80.98-26.523.004zm109.4 0l1.422-80.98c8.523 8.523 16.102 20.363 17.523 26.047.945 4.262 4.262 29.363 7.578 55.41H417.2zm173.81-41.682h-10.891c-5.684 0-9.945 4.262-9.945 9.945v80.508c0 5.684 4.262 9.945 9.945 9.945h10.891c5.684 0 9.945-4.262 9.945-9.945v-80.508c0-5.68-4.262-9.945-9.945-9.945zM419.57 201.72c0 24.062-19.508 43.57-43.57 43.57s-43.566-19.508-43.566-43.57 19.504-43.57 43.566-43.57 43.57 19.508 43.57 43.57"/></g></svg>