<svg xmlns="http://www.w3.org/2000/svg" viewBox="136 136 480 480"><defs><clipPath id="A"><path d="M139.21 215H345v305H139.21z"/></clipPath><clipPath id="B"><path d="M491 334h121.79v70H491z"/></clipPath></defs><g fill="var(--main,#000)"><path d="M288.27 181.13c0 20.203-16.379 36.582-36.582 36.582s-36.586-16.379-36.586-36.582 16.379-36.582 36.586-36.582 36.582 16.379 36.582 36.582"/><g clip-path="url(#A)"><path d="M188.74 329.73a12.93 12.93 0 0 0 7.367 2.297 12.99 12.99 0 0 0 3.199-.406v167.08c0 11.105 9.004 20.102 20.102 20.102s20.105-8.996 20.105-20.102v-146.77h9.348l21.797 150.3c1.594 10.988 11.793 18.602 22.777 17.008s18.605-11.789 17.012-22.777l-23.191-159.92-.004-59.344c1.168 2.039 2.508 4.051 4.207 6.031 1.523 1.738 3.391 3.484 5.898 4.953-.105 1.289-.227 2.563-.367 3.793v.02c-.297 2.621-.668 5.086-1.125 7.289-.34 1.648-.488 3.352-.488 5.074.016 7.051 2.438 14.465 5.316 20.289 1.449 2.91 3.008 5.406 4.543 7.285.777.941 1.535 1.727 2.359 2.356.828.602 1.723 1.164 3.07 1.199.043 0 .086.004.129.004 1.34 0 2.699-1.066 3.117-2.113.512-1.082.625-2.164.641-3.457-.004-1.773-.293-3.969-.91-6.816-2.008-9.223-3.269-20.934-3.914-32.523.504-.078 1.008-.148 1.484-.262.02-.004.031-.004.043-.008 3.156-.758 5.781-2.156 8.031-3.82.805-.594 1.57-1.223 2.285-1.871 4.086-3.746 7.313-8.348 10.793-14.391 3.445-6.047 7.016-13.566 10.949-23.059a13.01 13.01 0 0 0-7.043-16.992 13.01 13.01 0 0 0-16.992 7.043c-3.863 9.356-7.254 16.258-9.992 20.934l-1.484-4.211-2.754-1.137-.043.508-.238-.621-11.059-4.57c-1.738-.723-2.793-2.402-2.789-4.172a4.3 4.3 0 0 1 .344-1.719l4.519-10.934c-1.504-2.766-3.242-5.473-5.59-8.082-1.687-1.84-3.742-3.656-6.434-5.121-1.793-.984-3.918-1.75-6.18-2.148a12.48 12.48 0 0 0-2.902-.348h-2.422a39.89 39.89 0 0 1-20.574 5.688 39.9 39.9 0 0 1-20.586-5.695h-19.223c-1.176 0-2.301.172-3.379.473-7.695 1.039-14.703 3.996-21.277 7.543-12.09 6.644-22.941 15.816-31.109 23.398-8.129 7.582-13.441 13.586-13.633 13.805a13 13 0 0 0-1.805 14.598c.578.887 16.574 32.43 48.07 54.32zm119.57-1.801c-3.676-4.949-8.106-15.273-8.055-23.574 0-1.437.125-2.812.387-4.086.496-2.398.887-5.008 1.195-7.746v-.008c.086-.766.141-1.574.215-2.359a19.23 19.23 0 0 0 2.797.535c.648 11.809 1.93 23.789 4.027 33.445.523 2.406.762 4.231.797 5.453a13.68 13.68 0 0 1-1.363-1.66zm-124.38-70.676c4.961-4.004 10.328-7.797 15.367-10.598v58.586c-10.598-8.125-19.266-17.973-25.332-26.117-2.172-2.906-4.016-5.59-5.512-7.887 3.957-3.953 9.414-9.106 15.477-13.984z"/></g><path d="M337.08 221.5c-.004-.367-.219-.719-.578-.863l-26.848-11.094a.81.81 0 0 0-.348-.07c-.367.004-.711.215-.863.582l-13.871 33.562a.88.88 0 0 0-.066.34c.004.367.215.719.582.867l14.191 5.863c1.848-3.66 4.09-8.492 6.707-14.824 2.574-6.227 8.586-10.246 15.324-10.246a16.51 16.51 0 0 1 3.941.496l1.754-4.242c.055-.141.074-.262.074-.371zm232.37 38.37c17.715 9.699 24.215 31.926 14.512 49.645s-31.93 24.211-49.645 14.512-24.215-31.93-14.516-49.648 31.93-24.211 49.648-14.508M589.86 581.82l-24.391-90.238a20.51 20.51 0 0 0-6.852-10.512l-60.699-49.016c3.723-15.305 10.422-30.625 17.141-44.371-2.981-2.519-5.477-4.957-7.473-7.086-10.473-11.125-15.922-21.859-17.781-25.961l-.02-.043-.078-.176c-3.625-8.394.254-18.172 8.652-21.797 2.094-.902 4.305-1.359 6.566-1.359 6.602 0 12.574 3.906 15.211 9.961a22.49 22.49 0 0 0 .477.98 59.56 59.56 0 0 0 2.094 3.766c1.594 2.648 4.184 6.508 7.746 10.492 4.211-12.906 1.871-27.371-8.231-33.109-2.766-1.57-5.973-2.695-9.449-3.273-6.094-1.644-17.051-4-30.316-4.027-13.391.008-29.391 2.461-44.422 11.422-15.051 8.906-28.383 24.527-35.965 47.723a13.01 13.01 0 0 0 8.269 16.434 12.98 12.98 0 0 0 4.086.66 13.02 13.02 0 0 0 12.348-8.926c6.117-18.223 14.984-27.715 24.613-33.566 6.258-3.754 13.148-5.875 20.016-6.914-17.531 26.523-25.082 46.234-30.473 80.445-1.465 18.246 5.875 27.457 15.281 32.68l11.953 54.277-60.977 12.195a20.32 20.32 0 0 0-15.941 23.914 20.33 20.33 0 0 0 23.914 15.945v-.004l81.297-16.258c5.32-1.066 10.062-4.273 13.035-8.82a20.44 20.44 0 0 0 2.828-15.48l-6.922-31.449 22.559 18.219 22.668 83.871c2.449 9.063 10.652 15.027 19.609 15.027 1.758 0 3.539-.23 5.316-.707 10.828-2.922 17.238-14.082 14.309-24.918z"/><g clip-path="url(#B)"><path d="M517.43 343.82l-.484-.988-.082-.184c-2.859-6.566-10.496-9.586-17.078-6.742-6.598 2.844-9.633 10.5-6.785 17.094.398.855 5.519 12.742 17.211 25.156 11.527 12.316 30.66 25.445 57.012 25.445h.125c11.422.004 23.945-2.445 37.371-7.949 6.648-2.719 9.832-10.316 7.109-16.961a13.01 13.01 0 0 0-16.965-7.109c-10.734 4.387-19.789 6-27.52 6.008-17.539-.043-29.562-8.269-38.234-17.305-4.242-4.484-7.418-9.086-9.461-12.473-1.023-1.695-1.758-3.082-2.219-3.992z"/></g><path d="M366.86 277.11h120.86v5.418H366.86zm25.37 11.38h62.668v5.418H392.23zm0-22.77h62.668v5.418H392.23zm-71.48 208.57H442.7v6.504H320.75zm-169.09 0h30.891v6.504H151.66z"/></g></svg>