<svg xmlns="http://www.w3.org/2000/svg" width="1024" height="1024" viewBox="0 0 1024 1024"><path fill="#010101" stroke="#fff" stroke-linejoin="round" stroke-width="64" d="M392.6 547H162.5l62.8 18-16.8 45.4H369zM109.2 653l51-176.4h255.2l25.4-62.3H169.3l59.3-99.1 306 .7h12.2c179.3 0 354.6 1.1 445.2 1.5L916.1 415l-122.5-.6v.1h-66.4l60 17.2-100.9 277.2H539l107.3-294.5H499.1l76.4 18c-14.4 41.8-30.4 77-66.8 79.8 25 0 28.3 21 21.6 41.2-24.3 73.4-42.8 155.5-125 155.5H32Z" paint-order="stroke fill markers"/></svg>