<svg xmlns="http://www.w3.org/2000/svg" xmlns:xlink="http://www.w3.org/1999/xlink" viewBox="0 0 512 96"><path d="M212 95.6l-23.1-46.9h-10.3-9.9-22.2l8.1 16.5h22.2l6.7 13.9h-22.1l8.1 16.5H212zm-80.3-77L123.4 2H111h-8-11.9L137 95.5h20.3l-38.1-77 12.5.1zM78.1 2H58.2L96 79H74.6l-8.1 16.5h37.6 11.8 8.1L78.1 2zm-1 63.7l-7.7-16.5H42.2l13.6-27.7L45.8 2 0 95.5h19.5l14.6-29.8h43z" fill="#52b788"/><g fill="#2d6a4f"><path d="M222.4 45.3h-8.6l-1.8 4.1h-2.3l7.3-16.2h2.3l7.3 16.2h-2.4zm-.8-1.8l-3.5-7.9-3.5 7.9zm17.6-5.1a5.3 5.3 0 0 1 1.4 3.9v7.1h-2.3v-6.8a3.6 3.6 0 0 0-.8-2.7 3.4 3.4 0 0 0-2.5-.9 3.7 3.7 0 0 0-2.8 1 4.5 4.5 0 0 0-1.1 3.1v6.3h-2.2V37.1h2.2V39a3.4 3.4 0 0 1 1.8-1.5 7.5 7.5 0 0 1 2.6-.5 4.8 4.8 0 0 1 3.7 1.4zm17.3-6.2v17.2h-2.1v-2a4.9 4.9 0 0 1-1.9 1.6 5.3 5.3 0 0 1-2.5.5 6.1 6.1 0 0 1-3.2-.8 5.2 5.2 0 0 1-2.2-2.2 7.4 7.4 0 0 1 0-6.5 5.8 5.8 0 0 1 2.2-2.2 7.2 7.2 0 0 1 3.2-.8 6 6 0 0 1 2.4.5 4 4 0 0 1 1.9 1.5v-6.8zM252.3 47a3.6 3.6 0 0 0 1.5-1.5 5.1 5.1 0 0 0 0-4.5 3.6 3.6 0 0 0-1.5-1.5 4.5 4.5 0 0 0-4.2 0 4.3 4.3 0 0 0-1.5 1.5 5.1 5.1 0 0 0 0 4.5 4.3 4.3 0 0 0 1.5 1.5 4 4 0 0 0 4.2 0zm12.5-9.4a6.6 6.6 0 0 1 2.7-.6v2.2a.4.4 0 0 0-.5 0 3.6 3.6 0 0 0-2.8 1 4.5 4.5 0 0 0-1 3.1v6.1H261V37.1h2.1v2.1a3.7 3.7 0 0 1 1.7-1.6zm16.6 6.4h-9.9a4 4 0 0 0 1.4 2.6 4.9 4.9 0 0 0 6.5-.5l1.3 1.5a6 6 0 0 1-2.1 1.4 7.5 7.5 0 0 1-6.2-.3 4.9 4.9 0 0 1-2.3-2.2 6.2 6.2 0 0 1-.9-3.2 7.3 7.3 0 0 1 .8-3.3 5.8 5.8 0 0 1 2.2-2.2 7.2 7.2 0 0 1 3.2-.8 6.5 6.5 0 0 1 3.1.8 5.8 5.8 0 0 1 2.2 2.2 6.4 6.4 0 0 1 .7 3.3zm-8.7-4.2a4.2 4.2 0 0 0-1.2 2.6h7.8a3.9 3.9 0 0 0-6.6-2.6zm4.1-7.5h2.8l-3.9 3h-2.1zm8.6 16.8a6.2 6.2 0 0 1-2.2-1l.9-1.8a7.2 7.2 0 0 0 2 .9 5.9 5.9 0 0 0 2.3.4c1.9 0 2.9-.6 2.9-1.7a1.2 1.2 0 0 0-.4-.9l-.9-.4-1.7-.4-2.4-.5a3.4 3.4 0 0 1-1.6-1 3.1 3.1 0 0 1-.7-2A3.2 3.2 0 0 1 285 38a6.1 6.1 0 0 1 3.7-1 9.9 9.9 0 0 1 2.4.3 7 7 0 0 1 2 .8l-.9 1.8a6.4 6.4 0 0 0-3.5-1 4.2 4.2 0 0 0-2.2.5 1.2 1.2 0 0 0-.7 1.2 1 1 0 0 0 .4 1l1 .5 1.7.3 2.4.6a4.2 4.2 0 0 1 1.6.9 3 3 0 0 1 .6 2 2.9 2.9 0 0 1-1.4 2.6 7.6 7.6 0 0 1-3.9 1 9 9 0 0 1-2.8-.4zm17.9-15.9h2.4v14.2h8.7v2h-11.1zm15.5 15.5a5.4 5.4 0 0 1-2.3-2.2 6.8 6.8 0 0 1 0-6.5 5.4 5.4 0 0 1 2.3-2.2 6.8 6.8 0 0 1 6.5 0 6.1 6.1 0 0 1 2.3 2.2 6.8 6.8 0 0 1 0 6.5 6.1 6.1 0 0 1-2.3 2.2 6.8 6.8 0 0 1-6.5 0zm5.4-1.7a3.4 3.4 0 0 0 1.4-1.5 5.1 5.1 0 0 0 0-4.5 3.4 3.4 0 0 0-1.4-1.5 4.7 4.7 0 0 0-4.3 0 3.4 3.4 0 0 0-1.4 1.5 4.5 4.5 0 0 0 0 4.5 3.4 3.4 0 0 0 1.4 1.5 4.2 4.2 0 0 0 4.3 0zm-.8-14.7h2.8l-3.8 3h-2.1zm18 5.5a5.8 5.8 0 0 1 2.2 2.2 6.8 6.8 0 0 1 0 6.5 5.8 5.8 0 0 1-2.2 2.2 6.1 6.1 0 0 1-3.2.8 6.4 6.4 0 0 1-2.4-.5 4.5 4.5 0 0 1-1.9-1.5v6.4h-2.2V37.1h2.1V39a5.3 5.3 0 0 1 4.4-2 7.2 7.2 0 0 1 3.2.8zm-1.3 9.2a3.6 3.6 0 0 0 1.5-1.5 5.1 5.1 0 0 0 0-4.5 3.6 3.6 0 0 0-1.5-1.5 3.9 3.9 0 0 0-2.1-.6 4.2 4.2 0 0 0-2.1.6 5.4 5.4 0 0 0-1.5 1.5 5.9 5.9 0 0 0-.5 2.2 5.9 5.9 0 0 0 .5 2.3 4.3 4.3 0 0 0 1.5 1.5 4 4 0 0 0 4.2 0zm18.6-3h-9.9a4 4 0 0 0 1.4 2.6 4.9 4.9 0 0 0 6.5-.5l1.3 1.5a6 6 0 0 1-2.1 1.4 7.5 7.5 0 0 1-6.2-.3 4.9 4.9 0 0 1-2.3-2.2 6.6 6.6 0 0 1 0-6.4 5.4 5.4 0 0 1 2.2-2.3 6.5 6.5 0 0 1 3.1-.8 7.2 7.2 0 0 1 3.2.8 5.8 5.8 0 0 1 2.1 2.3 7.2 7.2 0 0 1 .8 3.2c0 .2-.1.4-.1.7zm-8.7-4.2a4.2 4.2 0 0 0-1.2 2.6h7.8a3.7 3.7 0 0 0-1.2-2.6 4.5 4.5 0 0 0-5.4 0zm21 7.8v1.8h-10.2v-1.5l7.2-9h-7.1v-1.8h9.9v1.5l-7.2 9zm21.2-6.4h2.2v6.3a7.6 7.6 0 0 1-2.8 1.5 9.6 9.6 0 0 1-3.3.6 9.3 9.3 0 0 1-4.4-1.1 7.5 7.5 0 0 1-3.1-3 8.6 8.6 0 0 1 0-8.5 7.9 7.9 0 0 1 3.1-2.9 9.9 9.9 0 0 1 4.4-1.1 11.3 11.3 0 0 1 3.6.6 8.3 8.3 0 0 1 2.6 1.9l-1.4 1.5a5.9 5.9 0 0 0-4.7-1.9 6.4 6.4 0 0 0-3.3.8 5.4 5.4 0 0 0-2.3 2.2 6.6 6.6 0 0 0 0 6.4 5.4 5.4 0 0 0 2.3 2.2 7.3 7.3 0 0 0 3.3.8 7.5 7.5 0 0 0 3.8-1zm8.5 7.5a6.1 6.1 0 0 1-2.3-2.2 6.8 6.8 0 0 1 0-6.5 6.1 6.1 0 0 1 2.3-2.2 7.3 7.3 0 0 1 3.3-.8 7.2 7.2 0 0 1 3.2.8 5.4 5.4 0 0 1 2.3 2.2 6.8 6.8 0 0 1 0 6.5 5.4 5.4 0 0 1-2.3 2.2 7.2 7.2 0 0 1-3.2.8 7.3 7.3 0 0 1-3.3-.8zm5.4-1.7a3.4 3.4 0 0 0 1.4-1.5 5.1 5.1 0 0 0 0-4.5 3.4 3.4 0 0 0-1.4-1.5 4.5 4.5 0 0 0-4.2 0 3.1 3.1 0 0 0-1.5 1.5 5.1 5.1 0 0 0 0 4.5 3.1 3.1 0 0 0 1.5 1.5 4 4 0 0 0 4.2 0zm17.8-8.6a5.3 5.3 0 0 1 1.4 3.9v7.1H423v-6.8a3.6 3.6 0 0 0-.8-2.7 3.4 3.4 0 0 0-2.5-.9 3.7 3.7 0 0 0-2.8 1 4.5 4.5 0 0 0-1 3.1v6.3h-2.3V37.1h2.2V39a3.4 3.4 0 0 1 1.8-1.5 7.5 7.5 0 0 1 2.6-.5 4.8 4.8 0 0 1 3.7 1.4zm14.8 9.2v1.8h-10.3v-1.5l7.2-9h-7v-1.8h9.9v1.5l-7.2 9zm11.5-9.3a4.7 4.7 0 0 1 1.4 3.7v7.4h-2.1v-1.6a5.1 5.1 0 0 1-1.6 1.3 6.9 6.9 0 0 1-2.5.4 4.7 4.7 0 0 1-3.2-1 3.3 3.3 0 0 1-1.3-2.6 3.2 3.2 0 0 1 1.2-2.6 6.1 6.1 0 0 1 3.7-1h3.6v-.4a3.1 3.1 0 0 0-.9-2.2 4.1 4.1 0 0 0-2.4-.8 7.1 7.1 0 0 0-2.1.4 4 4 0 0 0-1.8 1l-.9-1.7a7.8 7.8 0 0 1 2.2-1.2 13.5 13.5 0 0 1 2.8-.4 5.3 5.3 0 0 1 3.9 1.3zm-2.2 8.9a3.2 3.2 0 0 0 1.4-1.6v-1.7h-3.5c-1.8 0-2.8.6-2.8 1.9a2.1 2.1 0 0 0 .7 1.5 4.6 4.6 0 0 0 2 .5 4.3 4.3 0 0 0 2.2-.6zm-.1-14.9h2.8l-3.9 3h-2zm8-.1h2.2v17.2h-2.2zM473.6 44h-9.9a4 4 0 0 0 1.4 2.6 4.9 4.9 0 0 0 3 1 4.5 4.5 0 0 0 3.5-1.5l1.3 1.5a6 6 0 0 1-2.1 1.4 7.5 7.5 0 0 1-6.2-.3 4.9 4.9 0 0 1-2.3-2.2 5.3 5.3 0 0 1-.8-3.2 5.1 5.1 0 0 1 .8-3.2 5.4 5.4 0 0 1 2.2-2.3 6.4 6.4 0 0 1 6.2 0 6.1 6.1 0 0 1 2.2 2.3 7.2 7.2 0 0 1 .8 3.2 2 2 0 0 1-.1.7zm-8.7-4.2a4.2 4.2 0 0 0-1.2 2.6h7.8a3.7 3.7 0 0 0-1.2-2.6 4.1 4.1 0 0 0-5.3 0zm21 7.8v1.8h-10.2v-1.5l7.2-9h-7.1v-1.8h9.9v1.5l-7.2 9zM162.1 4.7v5.2h8.2v2.6h-8.2V19H159V2.1h12.3v2.6zm12.1-1.2a1.8 1.8 0 0 1-.6-1.3 1.6 1.6 0 0 1 .6-1.3 2.4 2.4 0 0 1 1.4-.5 1.5 1.5 0 0 1 1.3.5 1.4 1.4 0 0 1 .6 1.2 1.6 1.6 0 0 1-.6 1.3 1.6 1.6 0 0 1-1.3.6 2.4 2.4 0 0 1-1.4-.5zm-.2 2.6h3.1V19H174zm8.2 12.6a6.4 6.4 0 0 1-2.4-1l1.1-2.3a9.5 9.5 0 0 0 2.1.9 6.7 6.7 0 0 0 2.4.4c1.8 0 2.7-.5 2.7-1.4a1.1 1.1 0 0 0-.7-1l-2.2-.5-2.6-.5a4.5 4.5 0 0 1-1.7-1.1 2.9 2.9 0 0 1-.7-2.2 3.1 3.1 0 0 1 1.5-2.9 7.1 7.1 0 0 1 4.1-1.1l2.7.3a6 6 0 0 1 2.1.8l-1.1 2.3a7.1 7.1 0 0 0-3.7-1 4.5 4.5 0 0 0-2 .4 1.2 1.2 0 0 0-.7 1 1.2 1.2 0 0 0 .7 1.1l2.3.5 2.5.6a3.4 3.4 0 0 1 1.7 1.1 2.6 2.6 0 0 1 .7 2.1 3.3 3.3 0 0 1-1.5 2.9 7.8 7.8 0 0 1-4.3 1.1 14.5 14.5 0 0 1-3-.5z"/><use xlink:href="#W"/><path d="M203.3 18.3a6.9 6.9 0 0 1-2.4-2.4 6.7 6.7 0 0 1-.9-3.4 6.3 6.3 0 0 1 .9-3.3 6.9 6.9 0 0 1 2.4-2.4 8 8 0 0 1 7.1 0 6.9 6.9 0 0 1 2.4 2.4 6.3 6.3 0 0 1 .9 3.3 6.7 6.7 0 0 1-.9 3.4 6.2 6.2 0 0 1-2.4 2.4 8 8 0 0 1-7.1 0zm6.3-2.9a4.2 4.2 0 0 0 1.1-2.9 4.6 4.6 0 0 0-1.1-2.9 3.9 3.9 0 0 0-2.8-1.1 3.9 3.9 0 0 0-2.7 1.1 4.6 4.6 0 0 0-1.1 2.9 4.2 4.2 0 0 0 1.1 2.9 3.6 3.6 0 0 0 2.7 1.2 3.6 3.6 0 0 0 2.8-1.2zm15 2.9a3.8 3.8 0 0 1-1.3.6 5.8 5.8 0 0 1-4.9-.9 4.1 4.1 0 0 1-1.2-3.2V8.6h-2.1V6.2h2.1V3.3h3.1v2.9h3.4v2.4h-3.4v6.1a2 2 0 0 0 .4 1.5 1.6 1.6 0 0 0 1.3.4 2.2 2.2 0 0 0 1.7-.5zm14.3-4.8h-10.1a3.3 3.3 0 0 0 1.4 2.2 4.7 4.7 0 0 0 2.8.9 5.2 5.2 0 0 0 3.5-1.4l1.6 1.8a5.7 5.7 0 0 1-2.2 1.6 7.9 7.9 0 0 1-3 .5 7.3 7.3 0 0 1-3.8-.8 5.6 5.6 0 0 1-2.4-2.4 6.7 6.7 0 0 1-.9-3.4 7.6 7.6 0 0 1 .8-3.3 6.9 6.9 0 0 1 2.4-2.4 6.8 6.8 0 0 1 3.4-.8 5.7 5.7 0 0 1 3.4.8 5.7 5.7 0 0 1 2.3 2.3 6.2 6.2 0 0 1 .8 3.5zM230 9.2a3.5 3.5 0 0 0-1.2 2.3h7.3a3.5 3.5 0 0 0-1.2-2.3 4.1 4.1 0 0 0-4.9 0zM249.5 6v2.8h-.7a3.4 3.4 0 0 0-2.7 1 4 4 0 0 0-1 2.9V19h-3V6.1h2.8V8c.9-1.4 2.4-2 4.6-2zm12 1.3a5.3 5.3 0 0 1 1.5 4.1V19h-2.9v-1.6a3.7 3.7 0 0 1-1.5 1.3 7.4 7.4 0 0 1-2.5.5 7 7 0 0 1-2.5-.5 3.9 3.9 0 0 1-1.7-1.4 3.6 3.6 0 0 1-.6-2 3.4 3.4 0 0 1 1.3-2.8 6.2 6.2 0 0 1 4-1.1h3.4a3 3 0 0 0-.8-2.1 3.6 3.6 0 0 0-2.4-.7 7.8 7.8 0 0 0-2.2.3 5.6 5.6 0 0 0-1.7.9l-1.2-2.2a6.6 6.6 0 0 1 2.4-1.1 10.3 10.3 0 0 1 3-.4 6.4 6.4 0 0 1 4.4 1.2zm-2.8 9.1a2.8 2.8 0 0 0 1.3-1.5v-1.5h-3.1c-1.8 0-2.6.6-2.6 1.8a1.4 1.4 0 0 0 .6 1.3 2.8 2.8 0 0 0 1.8.4 3.5 3.5 0 0 0 2-.5zm18.9-9.6a6.3 6.3 0 0 1 2.3 2.3 7.7 7.7 0 0 1 .8 3.4 8.5 8.5 0 0 1-.8 3.5 6.3 6.3 0 0 1-2.3 2.3 6.8 6.8 0 0 1-3.4.8 4.9 4.9 0 0 1-4.1-1.7v6.2h-3V6.1h2.8v1.7a4.5 4.5 0 0 1 1.9-1.4 6 6 0 0 1 2.4-.5 6.9 6.9 0 0 1 3.4.9zm-1 8.6a4.2 4.2 0 0 0 1.1-2.9 4.6 4.6 0 0 0-1.1-2.9 3.9 3.9 0 0 0-2.7-1.1 4.6 4.6 0 0 0-2 .5 3.2 3.2 0 0 0-1.4 1.4 5.4 5.4 0 0 0-.5 2.1 4.6 4.6 0 0 0 .5 2.1 4 4 0 0 0 1.4 1.5 3.1 3.1 0 0 0 1.9.4 3.3 3.3 0 0 0 2.8-1.1zM284 3.5a1.8 1.8 0 0 1-.6-1.3 1.6 1.6 0 0 1 .6-1.3 1.5 1.5 0 0 1 1.3-.5 1.9 1.9 0 0 1 1.4.5 1.4 1.4 0 0 1 .6 1.2 1.6 1.6 0 0 1-.6 1.3 1.7 1.7 0 0 1-1.4.6 1.9 1.9 0 0 1-1.3-.5zm-.2 2.6h3V19h-3zm16.5 1.2a5.3 5.3 0 0 1 1.5 4.1V19h-2.9v-1.6a3.7 3.7 0 0 1-1.5 1.3 7.3 7.3 0 0 1-2.5.4 5.3 5.3 0 0 1-2.5-.5 3.7 3.7 0 0 1-1.7-1.3 3.6 3.6 0 0 1-.6-2 3.4 3.4 0 0 1 1.3-2.8 6.2 6.2 0 0 1 4-1.1h3.4a3 3 0 0 0-.8-2.1 3.6 3.6 0 0 0-2.4-.7 7.8 7.8 0 0 0-2.2.3 5.6 5.6 0 0 0-1.7.9l-1.2-2.2a6.6 6.6 0 0 1 2.4-1.1 10.3 10.3 0 0 1 3-.4 6.4 6.4 0 0 1 4.4 1.2zm-2.8 9.1a2.8 2.8 0 0 0 1.3-1.5v-1.5h-3.1c-1.8 0-2.6.6-2.6 1.8a1.4 1.4 0 0 0 .6 1.3 2.8 2.8 0 0 0 1.8.4 3.5 3.5 0 0 0 2-.5zm27.3-10.3l-6 13.9a6.1 6.1 0 0 1-2.1 2.9 4.8 4.8 0 0 1-2.9.9 6.3 6.3 0 0 1-1.9-.3 3.8 3.8 0 0 1-1.5-.9l1.2-2.2 1 .7 1.2.2a2 2 0 0 0 1.3-.4 5 5 0 0 0 1-1.4l.2-.4-5.6-13h3.1l4 9.5 4.1-9.5zM345.1 19l-3.4-5h-4.5v5h-3.1V2.1h6.9a9.9 9.9 0 0 1 3.8.7 6.4 6.4 0 0 1 2.5 2.1 6.2 6.2 0 0 1 .9 3.2 5.6 5.6 0 0 1-1 3.3 5.2 5.2 0 0 1-2.6 2l3.8 5.6zM344 5.6a4.8 4.8 0 0 0-3.1-.8h-3.7v6.7h3.7a4.8 4.8 0 0 0 3.1-.9 2.9 2.9 0 0 0 1-2.5 3 3 0 0 0-1-2.5zm19.7 7.9h-10.2a3.7 3.7 0 0 0 1.4 2.2 4.7 4.7 0 0 0 2.8.9 5 5 0 0 0 3.5-1.4l1.6 1.8a5 5 0 0 1-2.2 1.6 7.3 7.3 0 0 1-3 .6 8.4 8.4 0 0 1-3.7-.9 6.1 6.1 0 0 1-2.5-2.3 7.2 7.2 0 0 1-.9-3.4 6.7 6.7 0 0 1 .9-3.4 6.9 6.9 0 0 1 2.4-2.4 7.6 7.6 0 0 1 6.8 0 5.1 5.1 0 0 1 2.3 2.3 6.2 6.2 0 0 1 .8 3.5zm-8.9-4.3a4.1 4.1 0 0 0-1.3 2.3h7.3a3.4 3.4 0 0 0-3.6-3.1 3 3 0 0 0-2.4.8zM378 7.4a5.4 5.4 0 0 1 1.5 4.2V19h-3v-7a5 5 0 0 0-.8-2.6 2.9 2.9 0 0 0-2.3-.8 3.2 3.2 0 0 0-2.6 1 3.8 3.8 0 0 0-1 2.9V19h-3V1.1h3v6.5a4.7 4.7 0 0 1 1.9-1.2 4.9 4.9 0 0 1 2.4-.4 5.1 5.1 0 0 1 3.9 1.4zm14.8-.1a5.3 5.3 0 0 1 1.5 4.1V19h-2.8v-1.6a4 4 0 0 1-1.6 1.3 6.7 6.7 0 0 1-5-.1 4.3 4.3 0 0 1-1.7-1.3 3.6 3.6 0 0 1-.6-2 3.7 3.7 0 0 1 1.3-2.8 6.5 6.5 0 0 1 4.1-1.1h3.3a3 3 0 0 0-.8-2.1 3.6 3.6 0 0 0-2.4-.7 8.3 8.3 0 0 0-2.2.3 5.6 5.6 0 0 0-1.7.9L383 7.5a6.6 6.6 0 0 1 2.4-1.1 10.6 10.6 0 0 1 3.1-.4 6.1 6.1 0 0 1 4.3 1.3zm-2.8 9.1a2.4 2.4 0 0 0 1.3-1.5v-1.5h-3.1c-1.8 0-2.6.6-2.6 1.8a1.6 1.6 0 0 0 .6 1.3 3 3 0 0 0 1.8.4 3.3 3.3 0 0 0 2.1-.5zm18.9-9.6a5.1 5.1 0 0 1 2.3 2.3 5.7 5.7 0 0 1 .8 3.4 6.2 6.2 0 0 1-.8 3.5 5.1 5.1 0 0 1-2.3 2.3 6.8 6.8 0 0 1-3.4.8 5.2 5.2 0 0 1-2.4-.5 3.4 3.4 0 0 1-1.8-1.3V19h-2.9V1.1h3v6.6a4.6 4.6 0 0 1 1.8-1.3 7.3 7.3 0 0 1 5.7.4zm-1 8.6a3.8 3.8 0 0 0 1.1-2.9 4.1 4.1 0 0 0-1.1-2.9 3.9 3.9 0 0 0-2.7-1.1 4.1 4.1 0 0 0-1.9.5 3.2 3.2 0 0 0-1.4 1.4 5.4 5.4 0 0 0-.5 2.1 4.6 4.6 0 0 0 .5 2.1 3.2 3.2 0 0 0 1.4 1.4 3.9 3.9 0 0 0 4.6-.6zm7.4-11.9a1.8 1.8 0 0 1-.6-1.3 1.6 1.6 0 0 1 .6-1.3 2.4 2.4 0 0 1 1.4-.5 1.5 1.5 0 0 1 1.3.5 1.4 1.4 0 0 1 .6 1.2 1.9 1.9 0 0 1-.5 1.3 2 2 0 0 1-1.4.6 2.4 2.4 0 0 1-1.4-.5zm-.1 2.6h3V19h-3zm7.1-5h3.1V19h-3.1zm7.4 2.4a1.8 1.8 0 0 1-.6-1.3 1.6 1.6 0 0 1 .6-1.3 1.9 1.9 0 0 1 1.4-.5 1.5 1.5 0 0 1 1.3.5 1.4 1.4 0 0 1 .6 1.2 1.6 1.6 0 0 1-.6 1.3 1.6 1.6 0 0 1-1.3.6 2.4 2.4 0 0 1-1.4-.5zm-.2 2.6h3.1V19h-3.1zm15 12.2a3.8 3.8 0 0 1-1.3.6 5.8 5.8 0 0 1-4.9-.9 4.1 4.1 0 0 1-1.2-3.2V8.6H435V6.2h2.1V3.3h3.1v2.9h3.4v2.4h-3.4v6.1a2 2 0 0 0 .4 1.5 1.8 1.8 0 0 0 1.4.4 1.8 1.8 0 0 0 1.6-.5zm11.9-11a5.3 5.3 0 0 1 1.5 4.1V19h-2.8v-1.6a3.4 3.4 0 0 1-1.6 1.3 6.7 6.7 0 0 1-2.4.4 5.8 5.8 0 0 1-2.6-.5 4 4 0 0 1-1.6-1.3 3.6 3.6 0 0 1-.6-2 3.2 3.2 0 0 1 1.3-2.8 6.2 6.2 0 0 1 4-1.1h3.3a2.4 2.4 0 0 0-.8-2.1 3.4 3.4 0 0 0-2.4-.7 6.5 6.5 0 0 0-3.9 1.2l-1.2-2.2a8 8 0 0 1 2.5-1.1 10.3 10.3 0 0 1 3-.4 6.1 6.1 0 0 1 4.3 1.2zm-2.7 9.1a2.3 2.3 0 0 0 1.2-1.5v-1.5h-3.1c-1.7 0-2.6.6-2.6 1.8a1.7 1.7 0 0 0 .7 1.3 2.7 2.7 0 0 0 1.8.4 3.5 3.5 0 0 0 2-.5zm10.8 1.9a6.4 6.4 0 0 1-2.5-2.4 6.7 6.7 0 0 1-.9-3.4 6.3 6.3 0 0 1 .9-3.3 6.4 6.4 0 0 1 2.5-2.4 8.6 8.6 0 0 1 3.6-.8 6.4 6.4 0 0 1 3.3.8 4.1 4.1 0 0 1 2.1 2.2l-2.3 1.3a3.3 3.3 0 0 0-1.3-1.3 3.9 3.9 0 0 0-4.6.6 4 4 0 0 0-1.2 2.9 4.6 4.6 0 0 0 1.1 3 4.3 4.3 0 0 0 4.7.6 4 4 0 0 0 1.3-1.3l2.4 1.3a5.2 5.2 0 0 1-2.2 2.2 6.6 6.6 0 0 1-3.3.9 7.4 7.4 0 0 1-3.6-.9z"/><use xlink:href="#W" x="282.5"/><path d="M485.8 18.3a6.9 6.9 0 0 1-2.4-2.4 6.7 6.7 0 0 1-.9-3.4 6.3 6.3 0 0 1 .9-3.3 6.9 6.9 0 0 1 2.4-2.4 8 8 0 0 1 7.1 0 7.6 7.6 0 0 1 2.4 2.3 6.9 6.9 0 0 1 .9 3.4 6.7 6.7 0 0 1-.9 3.4 6.9 6.9 0 0 1-2.4 2.4 7.8 7.8 0 0 1-7 0zm6.3-2.9a4.2 4.2 0 0 0 1.1-2.9 4.6 4.6 0 0 0-1.1-2.9 3.9 3.9 0 0 0-2.7-1.1 3.9 3.9 0 0 0-2.8 1.1 4.6 4.6 0 0 0-1.1 2.9 4.2 4.2 0 0 0 1.1 2.9 3.6 3.6 0 0 0 2.8 1.2 3.6 3.6 0 0 0 2.7-1.2zm-1.5-14.3h3.5l-4.2 3.2h-2.6zm19.9 6.3a5.4 5.4 0 0 1 1.5 4.2V19h-3v-7a3.7 3.7 0 0 0-.8-2.6 2.7 2.7 0 0 0-2.3-.8 3.3 3.3 0 0 0-2.6 1 4.3 4.3 0 0 0-1 2.9V19h-3V6.1h2.9v1.7a5.2 5.2 0 0 1 1.9-1.4 7.5 7.5 0 0 1 2.6-.5 5.4 5.4 0 0 1 3.8 1.5z"/></g><defs><path id="W" d="M194 3.5a2.1 2.1 0 0 1-.5-1.3 1.9 1.9 0 0 1 .5-1.3 2.4 2.4 0 0 1 1.4-.5 1.9 1.9 0 0 1 1.4.5 1.7 1.7 0 0 1 .5 1.2 1.9 1.9 0 0 1-.5 1.3 2 2 0 0 1-1.4.6 2.4 2.4 0 0 1-1.4-.5zm-.1 2.6h3V19h-3z"/></defs></svg>