<svg xmlns="http://www.w3.org/2000/svg" width="1024" height="1024" viewBox="0 0 1024 1024"><path fill="#fff" d="M0 0h1024v1024H0z"/><path fill="#010101" d="M425.7 537.2H259.6l45.4 13-12.2 32.9h116zm-204.6 76.6 37-127.4h184.1l18.4-45h-196l42.7-71.5 221 .5h8.8c129.5 0 256 .8 321.5 1.1l-54.8 70.4-88.5-.4h-47.9l43.4 12.5-73 200.1H531.6L609 441.5H502.7l55.1 13c-10.3 30.1-22 55.6-48.2 57.5 18 0 20.4 15.2 15.6 29.8-17.5 53-30.9 112.3-90.3 112.3H165.4ZM127.4 432l10.7-41.7c.5-1.8.3-3.5-.5-5a5 5 0 0 0-3.7-2.9 5.6 5.6 0 0 0-4.6.8 6.4 6.4 0 0 0-2.9 4L115.7 429zm-22.9-5.9 9.7-37.6c.5-1.8.3-3.4-.5-5-.8-1.5-2-2.4-3.7-2.8a5.5 5.5 0 0 0-4.6.7 6.6 6.6 0 0 0-2.9 4L93 423.2zM91.2 377c1.3-5 4-8.9 8-11.6a15 15 0 0 1 13-2.2c2.4.6 4.5 1.7 6.3 3.2 1.8 1.6 3.2 3.5 4.3 5.8 2.2-2.6 4.8-4.4 7.9-5.5a16 16 0 0 1 19.8 8c2.3 4.5 2.8 9.2 1.5 14.4L136 451.6l-60-15.4zM134.5 334.2l19.8-37.4c1-1.8 1.2-3.4.7-5a5.5 5.5 0 0 0-3-3.7c-1.6-.8-3.1-1-4.7-.3a6 6 0 0 0-3.7 3.4L124 328.5zm-2.3-51a22 22 0 0 1 12.3-10.8c5.4-2 10.5-1.7 15.3.9a18 18 0 0 1 9 11c1.5 5 1.2 10-.8 15.1l29.5-7.2-9.2 17.4-28.5 6-13.2 25 19.8 10.4-7.8 15-54.8-29zM201.5 246l16.8-18.8-23.2-3.8zm-12.4-39 72.5 11.6-12.1 13.7-15.9-2.7-27.8 31.4 4.4 15.4-12 13.6-20.2-70.5zM285.2 203l-66.6-28.5 15.9-11.3 49.7 21.6-4.5-54 16-11.4 5.4 72.2zM334.8 119.3c-1 1.7-1 3.6-.3 5.6l7.3 18.5c.7 1.8 2 3.1 4 4 2 .6 4 .6 6-.2l35.8-14.1c2-1 3.6-2.3 4.5-4 .9-2 1-3.8.3-5.6l-7.3-18.6c-.8-1.9-2.1-3.2-4-4-2-.7-4-.7-6 .2l-35.9 14.1c-2 .8-3.5 2.1-4.4 4m39.8-32.7c5.2-2 10.2-2.1 15-.3 5 1.9 8.3 5.2 10.1 9.8l9.5 24c1.8 4.6 1.6 9.3-.7 14-2.3 4.7-6 8-11.2 10.1l-45 17.7c-5.2 2-10.2 2.1-15.1.3a16.7 16.7 0 0 1-10.1-9.8l-9.4-24c-1.9-4.7-1.6-9.3.7-14 2.3-4.7 6-8 11.2-10.1zM543.1 64l.4 13.8-32.1.8 1.2 48-17 .5-1.1-48.1-32 .7L462 66zM573.5 94.2l41.4 8.6c1.9.4 3.6.2 5-.7a5.5 5.5 0 0 0 2.6-3.9c.4-1.8.1-3.3-.9-4.6a6 6 0 0 0-4.3-2.6l-41.4-8.6Zm48.2-16.4a22 22 0 0 1 13.9 8.8c3.3 4.6 4.5 9.6 3.4 15a18 18 0 0 1-8 11.7c-4.4 2.8-9.3 4-14.8 3.4l15.1 26.3-19.2-4-13.7-25.7-27.7-5.7-4.5 22-16.6-3.4 12.5-60.7zM676.8 134l22.7 11-2.7-23.4zm34.1-22.7 8.8 72.9-16.4-7.9-1.9-16-37.8-18L650 151l-16.4-7.9 62.2-39zM770 147l-35.1 51-14-9.6 35-51zM795.8 166l9.3 68.3 29.7-31.7 12.4 11.6-42.4 45.2-12.4-11.6-9.2-68.3-29.8 31.6-12.3-11.5 42.4-45.2zM866 240.7l-48.7 38.2-10.5-13.3 48.8-38.3zM885 266.6l-11.6 68 37.9-21.3 8.3 14.8-54 30.3-8.3-14.8 11.6-67.9-37.8 21.3-8.3-14.7 54-30.4zM950 429.4l-13.3 3.7-16.2-59a7.8 7.8 0 0 0-3.6-5 6.4 6.4 0 0 0-5.5-.8l-19.2 5.3c-1.9.5-3.3 1.7-4.3 3.6-1 1.8-1.1 3.8-.5 6l12.2 44.7 9.3-2.5-5.6-20.4 12.6-3.4 10.1 36.6-35.2 9.7-18-65.9c-1.5-5.3-1-10.3 1.3-15 2.4-4.6 6-7.6 10.8-9l24.9-6.8c4.8-1.3 9.4-.6 13.8 2.2 4.5 2.8 7.4 7 8.9 12.2zM117 574.5l-49.5 7.6-2.1-13.5 49.5-7.6zM133.7 642.6l-10.8 3-6.8-25.1-37.6 10.1-3.6-13.2 37.6-10.1-6.7-25 10.8-3zM140.3 656.4l-14.8 27.3-9.2-5.7 12.6-28.7zM173 720.8c2.4 4 3 8 2.1 12.3a14 14 0 0 1-6.8 9.6h-.2l-6.7-11.4.2-.1c1-.6 1.5-1.4 1.7-2.5.4-1 .2-2-.5-3.1l-14.4-24.7c-.5-1-1.3-1.7-2.5-2-1-.3-2-.2-2.9.3-1 .6-1.5 1.4-1.7 2.5-.3 1-.1 2.1.5 3.1a4699.8 4699.8 0 0 0 15.7 27 17 17 0 0 1 2 12.6c-.8 4.5-3.2 7.8-7 9.9a14.2 14.2 0 0 1-12 1.2 17 17 0 0 1-10-8.1L114 718.7c-2.4-4-3.1-8.3-2.2-12.7 1-4.4 3.3-7.7 7-9.9l6.5 11.1h-.1c-1 .6-1.7 1.6-2 2.9-.3 1.2 0 2.4.6 3.6l15.7 27c.8 1.2 1.7 2 2.9 2.4a4.1 4.1 0 0 0 5.3-3.2c.3-1.3.1-2.5-.5-3.6l-16.3-28c-2.3-4-3-8-2-12.3a14 14 0 0 1 6.8-9.5c3.6-2.2 7.5-2.5 11.5-1.2 4.2 1.3 7.4 4 9.9 7.8zM215.7 777.2l6.2 55.5 24.7-25 9.8 9.6-35.2 35.7-9.8-9.7-6.2-55.4-24.6 25-9.8-9.6 35.2-35.7zM264.7 838.8c-1.6.2-3 1-3.9 2.4l-9 13.4a5.5 5.5 0 0 0-.8 4.5c.4 1.6 1.4 2.9 2.9 4l25.8 17.4c1.5 1 3.1 1.3 4.7 1 1.7-.2 3-1 3.9-2.3l9-13.3c1-1.4 1.2-3 .8-4.5a6 6 0 0 0-2.9-4L269.4 840c-1.4-1-3-1.4-4.7-1.2m40.1 11.6c3.7 2.5 6.1 5.8 7 10 1.1 4 .5 7.8-1.8 11.2l-11.7 17.2a13.4 13.4 0 0 1-9.7 6c-4.2.6-8.1-.3-11.8-2.8l-32.5-22c-3.7-2.5-6-5.8-7-10-1-4-.4-7.8 1.9-11.1l11.6-17.3c2.3-3.4 5.5-5.3 9.7-6 4.2-.6 8.2.4 11.9 2.9zM381.4 887.4l-4.5 10.2L353 887l-15.7 35.7-12.5-5.6 15.7-35.6-23.8-10.5 4.6-10.2zM483.3 908.4l-1.7 11-25.7-4-6 38.5-13.5-2.1 6-38.5-25.6-4 1.7-11zM501.7 908l-2.3 50.1-13.6-.6 2.3-50zM585.8 903.7l4 50-13.6 1-2.6-31.6-18.1 28.8-11.8.9-22.5-25.5 2.6 31.6L510 960l-4-50 14.2-1 28.4 32.9 23-37zM648.8 886.1l3 10.8-46.6 12.6 2.1 7.9 40.4-11 2.8 10.7-40.3 10.9 2.2 8.3 46.6-12.6 3 10.8-59.8 16.2-13.1-48.4zM741.6 838.9l5.5 9.7-22.5 12.9 19.3 33.8-11.8 6.8-19.4-33.8-22.5 12.9-5.6-9.7zM764.8 837c-.3 1.6.1 3 1.2 4.3l10.4 12.4c1 1.2 2.4 1.9 4 2 1.7 0 3.3-.6 4.7-1.7l23.8-20a7.1 7.1 0 0 0 2.4-4.3c.2-1.7-.2-3.1-1.2-4.3L799.7 813c-1-1.3-2.4-2-4-2a6 6 0 0 0-4.7 1.7l-23.8 20a6.3 6.3 0 0 0-2.4 4.3m22.1-35.4c3.5-3 7.3-4.3 11.5-4.1 4.3.2 7.7 1.8 10.3 5l13.4 15.9c2.6 3 3.6 6.7 3 11-.5 4.1-2.5 7.7-6 10.5l-30 25.2a16.4 16.4 0 0 1-11.4 4.1c-4.3-.2-7.7-1.8-10.3-5L754 848.4a13.5 13.5 0 0 1-3-11c.5-4.1 2.5-7.7 6-10.5zM844.6 757c.2 1.7 1 3 2.4 4l13.3 9c1.3 1 2.8 1.3 4.5.9 1.6-.4 2.9-1.3 4-2.8l17.5-25.7c1-1.5 1.4-3.1 1.2-4.7-.2-1.7-1-3-2.3-4l-13.3-9a5.3 5.3 0 0 0-4.5-.8 6 6 0 0 0-4 2.8l-17.6 25.6c-1 1.5-1.4 3.1-1.2 4.8m11.9-40c2.5-3.8 5.9-6 10-7s7.8-.4 11.2 2l17.2 11.7c3.3 2.3 5.3 5.6 5.9 9.8.5 4.2-.4 8.1-3 11.8l-1.9 2.8 11.5.4-8.3 12.2-11.5-.4-12 17.3c-2.5 3.7-5.8 6-10 7-4 1-7.8.3-11.1-2l-17.2-11.8a13.5 13.5 0 0 1-6-9.7c-.5-4.2.5-8.2 3-11.9zM872.7 688.2l30.3 13.5c1.5.6 3 .6 4.6 0a6.8 6.8 0 0 0 3.4-3.5l11.3-25.5c.7-1.7.8-3.3.3-4.9a5.5 5.5 0 0 0-3-3.4L889.4 651l5.5-12.5 32.4 14.5c3.8 1.6 6.3 4.4 7.6 8.5 1.3 4 1 8-.7 12.2l-14.7 32.8c-1.8 4-4.7 7-8.6 8.7a13.5 13.5 0 0 1-11.3 0l-32.4-14.4zM899.2 620.5l47.8 15.1-4 13-47.9-15zM914.5 552l10.9 2.2-5 25.5 38.2 7.6-2.6 13.4-38.3-7.5-5 25.4-11-2.2zM112.7 498.3a19.9 19.9 0 1 1-39.7 0 19.9 19.9 0 0 1 39.7 0M949.5 498.3a19.9 19.9 0 1 1-39.8 0 19.9 19.9 0 0 1 39.8 0"/></svg>