<svg xmlns="http://www.w3.org/2000/svg" viewBox="0 0 500 120.235"><path fill="#1d1d1b" d="M60.412 119.777a.41.41 0 0 1 .407-.407.41.41 0 0 1 .407.407.41.41 0 0 1-.407.407.41.41 0 0 1-.407-.407zm-28.477-.814c0-.224.194-.407.431-.407s.318.183.179.407-.332.407-.431.407-.179-.183-.179-.407zm35.393.866a.41.41 0 0 1 .407-.407.41.41 0 0 1 .407.407.41.41 0 0 1-.407.407.41.41 0 0 1-.407-.407zm5.492-.022c-1.119-.211-2.446-.289-2.949-.173s-.915.039-.915-.17-.94-.583-2.089-.829c-6.262-1.343-15.41-5.674-21.262-10.066-14.17-10.635-23.021-26.967-24.117-44.501-.243-3.892-.243-3.892.885-4.78 2.111-1.661 4.064-.734 4.494 2.133.191 1.277.489 1.845 1.041 1.99.425.111.773.014.773-.216 0-.242.266-.198.63.105.548.455.604.378.427-.596-.112-.615-.441-1.413-.732-1.772-.442-.545-.435-.596.042-.308.426.257.48.199.215-.227a4.05 4.05 0 0 1-.465-1.269c-.151-.97.892-.508 1.403.619.333.735.47.358.785-2.16.353-2.831.32-3.102-.454-3.754l-.834-.703.915-.009c.538-.006.915-.26.915-.619 0-.336-.072-.61-.16-.61s-2.056-.186-4.373-.412c-4.55-.445-8.013-1.11-8.732-1.677-.769-.606-4.357-1.563-5.88-1.567s-5.808-1.056-9.942-2.438L0 44.982l3.865.17c2.125.093 6.794.758 10.374 1.478s6.99 1.281 7.577 1.248 4.248.568 8.136 1.334c9.342 1.843 9.457 1.853 9.653.849s16.525-28.53 17.677-29.799c.915-1.008 2.616-1.2 3.616-.407.353.28 2.153 3.13 4.001 6.335 2.682 4.65 3.457 5.718 3.844 5.288.267-.295 2.733-4.382 5.481-9.081s5.361-8.863 5.807-9.255c1.182-1.037 2.544-.879 3.635.423.523.624 3.215 5.018 5.981 9.764s5.146 8.624 5.288 8.618 1.707-2.523 3.478-5.594 3.492-5.904 3.826-6.295c.788-.923 3.019-.923 3.822 0 .341.391 6.615 10.964 13.943 23.494L133.85 66.89c.764.813 1.183-4.488.881-11.129-.579-12.705-5.695-24.532-14.648-33.857-7.339-7.645-15.359-12.304-25.907-15.051-5.292-1.378-15.85-1.748-21.561-.756-11.321 1.968-21.289 7.272-29.421 15.658-5.983 6.169-9.85 12.52-12.476 20.494-1.43 4.341-2.344 5.412-4.216 4.943-2.354-.591-2.545-2.115-.899-7.127C32.077 20.361 48.929 5.484 69.895.965c5.97-1.287 17.371-1.287 23.341 0 25.911 5.585 44.409 26.309 46.985 52.643.632 6.461-.292 16.533-1.901 20.705-.191.495.077.73 1.091.953.74.163 1.115.386.836.496-.867.34-.56.945.479.945.543 0 1.262.275 1.598.61s.898.61 1.249.61.639.168.639.374.961.684 2.136 1.063 2.562.956 3.084 1.284 1.219.491 1.552.364c.565-.216 2.948.751 3.399 1.38.318.442 2.902 1.244 3.273 1.016.183-.113.805.233 1.383.769 1.037.961 2.64 1.48 4.572 1.48.556 0 .88.178.739.407-.431.697-3.836.454-11.62-.829-9.218-1.519-19.371-3.68-23.976-5.105-2.026-.627-4.675-1.117-6.398-1.183-3.433-.133-8.669-1.29-9.286-2.053-.263-.326-1.303-.522-2.701-.509-2.418.022-7.652-.874-7.652-1.309 0-.377-7.585-1.361-8.32-1.079-.36.138-.58.035-.523-.246.054-.266-.305-.546-.796-.621-.551-.085-.813-.346-.682-.685.122-.316-.149-.662-.639-.818-.467-.148-.752-.426-.634-.618.292-.473-1.053-.859-2.708-.776-.756.038-2.39-.416-3.681-1.023-2.209-1.038-2.37-1.059-3.346-.419-.938.615-1.079.617-1.675.021-.743-.743-1.406-.849-1.406-.225 0 .254-.532.336-1.322.204l-2.445-.399c-.618-.097-1.441-.27-1.831-.383s-1.439-.314-2.331-.446c-1.09-.161-1.914-.603-2.509-1.346l-.887-1.105.965-.127c.541-.071 1.08-.491 1.228-.956.332-1.046-.383-1.858-1.122-1.275-.363.286-.904.249-1.746-.121-.671-.295-.981-.543-.688-.554s.412-.214.264-.453-.538-.331-.867-.205-.963.034-1.409-.204c-.509-.272-.99-.292-1.293-.053-.315.249-.905.118-1.703-.376-.671-.416-1.061-.758-.866-.759s.155-.243-.089-.537-1.646-.786-3.116-1.092c-1.973-.412-2.615-.705-2.454-1.123.157-.41-.09-.539-.901-.47a5.09 5.09 0 0 1-2.135-.366c-2.408-1.092-18.614-4.226-18.96-3.666-.117.189.12.45.526.581a19.71 19.71 0 0 1 1.552.596c.448.197 1.821.621 3.051.943 2.965.775.949.826-2.238.057-3.078-.743-3.051-.743-3.051.016 0 .389.196.523.508.347.407-.23.407-.178 0 .26-.593.639-.684 1.355-.128 1.011.234-.145.244.24.029.993-.33 1.153-.235 1.393.506 1.277.421-.067.383.261-.151 1.3-.376.732-.362.799.082.38.746-.705 1.006-.637 1.075.278.032.432-.203 1.004-.523 1.271-.763.632-.743 1.198.042 1.198.481 0 .532.173.222.751-.277.517-.255.898.067 1.221.355.355.338.469-.069.469-.439 0-.442.115-.016.629.287.346.793.525 1.124.398.499-.191.513-.124.085.393-.436.525-.396.613.247.555 1.538-.139 2.19.074 2.19.717 0 .45-.249.593-.788.452-.456-.119-.879.032-1.004.36-.119.311-.054.565.145.565s.482.549.63 1.221c.169.772.518 1.215.948 1.206.778-.016 2.955-1.17 2.25-1.191-.641-.02-.478-1.338.234-1.896.489-.382.434-.505-.335-.749-.817-.259-.854-.367-.333-.967.323-.371.502-.91.398-1.196s-.034-.494.155-.46.695.039 1.126.012c.732-.045.72-.115-.173-1.065-.777-.827-.831-1.017-.287-1.017.456 0 .586-.215.409-.677-.181-.472-.107-.583.244-.366.312.193.474.102.427-.239a7.76 7.76 0 0 1-.027-1.277c.04-.602.146-.637.616-.203.312.289.494.647.404.796s.007.721.216 1.271c.256.674.231 1.149-.079 1.458-.34.34-.336.459.017.459.262 0 .37.275.241.61-.344.896.388.744.979-.203.652-1.044 1.315-1.044 1.315 0 0 .447-.162.814-.36.814s-.455.366-.572.814c-.17.651-.012.814.79.814.565 0 .893.178.751.407s-.047.407.203.407.351.168.224.374.064.669.423 1.028c.523.523.555.774.157 1.253-.409.492-.356.599.298.599 1.163 0 1.426.453.62 1.066-.413.313-.5.541-.21.549s.39.289.242.674c-.23.599-.156.597.789-.022.654-.429 1.137-.53 1.297-.271.14.226-.307.702-.993 1.056s-1.138.82-1.006 1.034.077.389-.122.389-.363.27-.363.601c0 .431.276.532.974.356.763-.191 1.023-.057 1.2.619.124.475.388.864.585.864.901 0 .235 1.183-.793 1.409-.634.139-1.153.498-1.153.798 0 .407.297.46 1.173.209 1.045-.3 1.145-.25.922.455-.186.586-.06.789.489.786 2.281-.017 3.314-1.16 3.66-4.048.183-1.528.537-2.224.537-1.056 0 .485.207.642.631.479.347-.133.536-.088.42.1s.035.679.336 1.092c.523.715.597.717 1.626.043.593-.388 1.274-.585 1.514-.437.297.183.29-.002-.017-.578-.249-.466-.702-.753-1.004-.636-.323.124-.641-.134-.77-.626-.144-.551-.024-.837.353-.837.315 0 .572-.344.572-.764 0-.849.942-1.82 1.36-1.403.147.147.268.065.268-.183s-.181-.563-.403-.699c-.248-.153-.164-.612.219-1.197.342-.522.593-1.107.558-1.301-.163-.901.074-1.777.483-1.777.252 0 .341.313.203.712-.207.593-.146.581.363-.078.593-.766.613-.76.658.203.026.546.014 1.314-.026 1.705s.143.712.407.712c.318 0 .255.343-.187 1.017-.366.56-.505 1.017-.307 1.017s.264.503.147 1.119c-.182.959-.125 1.047.399.614.336-.278.728-.389.869-.247s.52.04.842-.227c.401-.333.667-.35.849-.055.146.236-.021.539-.371.674s-.636.661-.636 1.17c0 1.134 1.287 1.571 2.32.788.862-.654 1.494-.75 1.138-.173-.138.224.08.413.485.421.601.012.559.112-.227.548-.804.446-.855.576-.305.786.362.139.658.635.658 1.103 0 .52-.176.742-.452.571-.249-.154-.612-.027-.808.281-.544.859-.434 1.325.19.808.379-.315.868-.339 1.525-.075.532.213.739.399.459.413-.925.047-.527 1.153.508 1.413 1.266.318 1.332 1.037.102 1.1-.715.037-.756.088-.186.237.506.131.653.428.481.97-.188.591-.051.781.56.781 2.142 0 2.587-.884 1.39-2.76-.56-.877-.575-1.003-.077-.61.541.427.732.132 1.381-2.138.414-1.448.848-2.537.965-2.42.353.353 1.283-2.249 1.29-3.611.005-.97.1-1.129.398-.665.215.336.283.958.15 1.384-.173.556-.08.712.333.553.705-.27.904 1.241.265 2.011-.27.326-.284.527-.034.527.222 0 .382.405.355.9-.031.568.303 1.077.903 1.378.56.281.745.546.45.644-.394.131-.396.364-.012 1.082.37.692.708.849 1.38.642 1.266-.389 1.328-.519.599-1.248-.528-.528-.568-.887-.209-1.923.242-.7.728-1.496 1.08-1.769.366-.283.439-.501.17-.508-.285-.008-.377-.371-.234-.918.13-.498.312-.68.403-.407s.34.498.553.498c.241 0 .236-.284-.013-.748-.22-.411-.295-1.152-.165-1.646.156-.598-.021-1.106-.53-1.52-.421-.342-.535-.505-.255-.364.312.158.667-.156.915-.808.556-1.462 1.101-.976.957.854-.111 1.408-.079 1.456.5.733.711-.887.711-.891-.242 2.773-.275 1.055-.373 2.245-.217 2.645.251.647.344.614.848-.291.312-.56.576-.834.587-.61s.198.132.415-.203c.325-.503.396-.464.401.224.003.459-.214 1.054-.482 1.322-.379.379-.366.488.063.488.438 0 .424.146-.068.712-.714.821-.843 2.328-.151 1.763.649-.53 1.297.391 1.191 1.695-.075.92.074 1.119.836 1.119 1.177 0 2.145-1.824 1.427-2.69-.355-.427-.352-.565.012-.565.264 0 .368-.183.229-.407s.009-.407.327-.407c.397 0 .517-.318.383-1.017-.112-.583-.004-1.017.25-1.017.306 0 .323-.317.057-1.017-.528-1.391-.193-1.283.533.17.384.771.453 1.326.196 1.583s-.211.733.135 1.356c.292.527.492 1.096.444 1.264s.174.305.492.305.699.549.846 1.221.437 1.221.642 1.221.374.294.374.654c0 .414.224.568.61.419.89-.341.746.274-.203.866-1.047.654-1.033 1.163.041 1.443.523.137.74.409.56.701-.34.55 1.978.16 3.057-.515.976-.609 1.614-2.203 1.091-2.727-.31-.31-.289-.436.076-.436.282 0 .396-.188.254-.417s-.015-.366.281-.305.492-.178.432-.544.169-1.185.506-1.831l.613-1.175.049 1.017c.027.56.014 1.354-.029 1.767-.062.584.107.69.764.482.681-.216.791-.133.573.436-.171.447-.112.606.163.436.238-.147.543.017.677.366s.419.525.635.391.289-.511.163-.839-.027-.597.221-.597.451-.183.451-.407-.275-.407-.61-.407-.61-.183-.61-.407a.41.41 0 0 1 .407-.407c.224 0 .407-.336.407-.746s.135-.881.3-1.046c.298-.298.333-.464.452-2.131.034-.48.305-.965.602-1.079.419-.161.482.174.281 1.497-.142.937-.42 1.972-.618 2.299-.308.511-.262.517.329.037.882-.715.875-.317-.017 1.081-.672 1.053-.672 1.078.013.535.664-.527.687-.487.298.535-.613 1.613-.525 1.953.429 1.65.755-.24.799-.176.398.574-.365.683-.341.801.128.621.719-.276.682 1.02-.052 1.795-.707.747-.636 1.7.126 1.7.377 0 .516.191.343.471-.204.33.002.393.688.209.538-.144 1.254-.27 1.589-.28.488-.014.47-.1-.088-.426-.652-.38-.645-.462.102-1.208.441-.441.801-1.05.801-1.355 0-.384.342-.489 1.119-.341 1.004.191 1.062.143.56-.463-.473-.573-.473-.677 0-.685.323-.005.129-.345-.459-.804-.713-.558-.829-.798-.386-.804.347-.005.819.18 1.051.411.479.479 1.576-2.605 1.163-3.273-.135-.217-.073-.701.136-1.075.342-.611.407-.597.641.143.143.452.146 1.123.005 1.49-.152.396-.052.667.244.667.378 0 .387.136.037.559a1.37 1.37 0 0 0-.206 1.231c.214.556.368.583.899.153.425-.344.544-.357.353-.039-.158.264-.09.603.152.752.293.181.206.53-.26 1.045-.409.452-.505.773-.23.773.259 0 .47.338.47.751 0 .985 1.258 2.097 2.371 2.097.486 0 .884.194.884.431s.183.318.407.179.407.011.407.333.272.811.606 1.087c.846.702 1.319-.568.559-1.501-.484-.594-.464-.647.158-.414.532.199.712.058.712-.558 0-.496.178-.715.447-.548.312.193.307.014-.017-.592-.361-.674-.351-.844.042-.761.279.059.524-.167.545-.503s.273-.559.562-.497c.385.083.455-.242.262-1.221-.174-.885-.135-1.147.119-.78.323.468.417.468.603 0 .122-.305.235.052.252.794s-.159 1.705-.392 2.142c-.33.616-.282.847.214 1.037.51.196.539.364.145.839-.385.464-.386.66-.001.898.358.221.267.508-.331 1.049-.453.41-.823.894-.823 1.076 0 .723 1.521-.28 3.316-2.188 2.006-2.132 2.833-2.279 4.515-.803 1.631 1.433.735 3.395-4.258 9.324-7.912 9.394-19.527 16.313-32.404 19.305-4.016.933-17.457 1.402-21.004.733zm46.987-25.848c0-.793-1.153-1.21-1.736-.627-.343.343-.284.461.231.461.38 0 .692.285.692.634s.183.521.407.383.407-.521.407-.851zm-12.333-.243c-.13-.325-.226-.228-.246.246-.017.429.079.669.214.534s.15-.486.032-.78zm10.485-1.116c.129-.208.048-.494-.179-.634s-.414.03-.414.379c0 .715.244.82.593.255zm-22.63-1.288c.7-1.12.44-1.309-.993-.722-.918.377-1.018.52-.458.652.394.093.613.34.485.546s-.082.376.1.376.573-.384.866-.853zm-14.17-10.538c0-.224-.194-.407-.431-.407s-.318.183-.179.407.332.407.431.407.179-.183.179-.407zm-17.493-1.041c0-.573-.166-.938-.369-.813s-.273.594-.156 1.041c.293 1.119.525 1.019.525-.228zm-14.645-.617c0-.193-.275-.245-.61-.117s-.61.392-.61.584.275.245.61.117.61-.392.61-.584zm10.781-2.817c-.138-.224-.434-.407-.658-.407s-.293.183-.155.407.434.407.658.407.293-.183.155-.407zm72.465-.915c-.318-.503-6.575-11.167-13.904-23.697L104.565 28.21c-.414-.608-.624-.432-1.698 1.424l-12.3 20.998c-3.611 6.133-6.487 11.229-6.39 11.326s2.34.71 4.987 1.363 5.153 1.384 5.572 1.624 1.591.437 2.605.437 2.295.171 2.845.381c.828.315.959.271.758-.253-.16-.417.217-.283 1.106.396 1.556 1.187 3.926 1.821 3.926 1.051 0-.272.591.004 1.315.613 1.725 1.451 8.342 4.605 8.769 4.179.183-.183 1.238.093 2.345.612 2.269 1.064 8.259 2.681 11.458 3.094 1.167.151 2.25.403 2.407.56.565.565.564.267-.002-.63zM28.071 65.222c-.101-1.373-1.018-1.381-1.018-.009 0 .652.125 1.311.277 1.464.398.398.816-.426.74-1.455zm2.644-3.748c0-.098-.183-.292-.407-.431s-.407-.057-.407.179.183.431.407.431.407-.081.407-.179zm47.581-1.881c.281.454 13.124-20.814 13.155-21.786.008-.249-2.154-4.146-4.805-8.658-3.799-6.467-4.921-8.094-5.3-7.683-.662.718-19.228 32.183-19.384 32.85-.079.335.565.724 1.705 1.034 1.007.273 4.577 1.426 7.933 2.563 3.685 1.248 6.162 1.896 6.253 1.637.1-.285.249-.27.444.044zM72.82 46.195c-.138-.224-.057-.407.179-.407s.431.183.431.407-.081.407-.179.407-.292-.183-.431-.407zm-9.412-5.492c.813-1.342 1.477-2.688 1.478-2.99.002-.759-5.391-9.86-5.765-9.728-.298.105-13.661 22.359-14.077 23.442-.158.411.016.484.661.28.481-.153.875-.113.875.087 0 .52 6.095 1.729 7.376 1.462.597-.124 1.197-.018 1.357.239.164.265 1.63-1.836 3.451-4.945l4.643-7.848zm-4.623 76.685a.41.41 0 0 1 .407-.407.41.41 0 0 1 .407.407.41.41 0 0 1-.407.407.41.41 0 0 1-.407-.407zm-18.51-.814c-.138-.224.045-.407.407-.407s.545.183.407.407-.322.407-.407.407-.269-.183-.407-.407zm-10.171-15.459c.138-.224.332-.407.431-.407s.179.183.179.407-.194.407-.431.407-.318-.183-.179-.407zm-14.849-2.034c0-.224.457-.407 1.017-.407s1.017.183 1.017.407-.457.407-1.017.407-1.017-.183-1.017-.407zm75.26-17.493c0-.224.194-.407.431-.407s.318.183.179.407-.332.407-.431.407-.179-.183-.179-.407zm-38.241-1.627c0-.224.172-.407.383-.407s.496.183.634.407-.034.407-.383.407-.634-.183-.634-.407zm21.968-3.278c0-.237.183-.318.407-.179s.407.332.407.431-.183.179-.407.179-.407-.194-.407-.431zm-4.271-1.603c.138-.224.332-.407.431-.407s.179.183.179.407-.194.407-.431.407-.318-.183-.179-.407zM25.223 54.739c-.321-.52 1.027-.52 1.831 0 .477.308.372.396-.485.401-.602.003-1.208-.177-1.346-.401zm170.726 24.248c-5.399-1.143-10.8-5.406-13.112-10.347-6.882-14.708 6.262-30.905 21.797-26.858 2.82.735 6.692 2.717 7.976 4.083l.91.969-1.768 1.943c-2.442 2.683-2.621 2.752-4.152 1.596-2.179-1.644-4.373-2.356-7.284-2.363-5.749-.014-10.045 3.498-11.572 9.46-.733 2.861-.517 4.909.839 7.93 2.528 5.639 8.734 8.333 14.998 6.512l2.309-.671v-2.226-2.226l-2.136-.006c-3.046-.009-3.213-.199-3.071-3.488l.122-2.812 5.435-.114c3.661-.077 5.62.039 6.001.355.442.367.565 1.999.565 7.509 0 8.275.219 7.874-5.288 9.694-3.676 1.215-9.513 1.708-12.567 1.061zm37.078-.216c-8.397-2.261-13.97-9.541-13.995-18.28-.016-5.588 1.753-10.028 5.47-13.732 9.367-9.333 24.759-6.704 30.66 5.235 1.559 3.154 1.56 3.163 1.56 8.264 0 5.058-.014 5.136-1.519 8.288-3.964 8.302-13.311 12.612-22.177 10.225zm9.412-7.119c6.372-2.384 9.547-10.097 6.691-16.255-2.265-4.883-6.678-7.555-11.934-7.224-4.749.299-8.268 2.754-10.301 7.188-4.529 9.873 5.264 20.136 15.544 16.29zm34.522 6.871c-.361-.361-.507-2.341-.507-6.907v-6.401l-1.115-.129c-1.207-.14-1.565-.95-1.15-2.602.178-.708.528-.985 1.249-.985h1.002l.109-9.865.109-9.865h7.729c7.001 0 7.904.08 9.581.857 9.04 4.183 9.705 16.382 1.151 21.12-2.089 1.157-2.465 1.221-8.291 1.416l-6.102.203-.203 6.712-.203 6.712-1.426.12c-.784.066-1.654-.108-1.932-.386zm15.692-18.08c5.961-2.97 5.894-11.316-.113-14.045-1.315-.598-2.681-.748-6.831-.756l-5.187-.009v7.933 7.933h5.006c4.573 0 5.188-.091 7.125-1.056zm23.94 18.278c-.149-.149-.271-3.432-.271-7.295v-7.024l-1.119-.129c-.972-.112-1.135-.33-1.246-1.659-.117-1.418-.036-1.549 1.112-1.778l1.238-.247.109-9.409.109-9.409h8.747c9.898 0 11.014.26 14.021 3.268 3.219 3.219 4.226 8.426 2.396 12.394-.963 2.089-3.759 5.002-5.486 5.717-.642.266-1.168.643-1.168.838s1.494 3.349 3.321 7.011c2.049 4.108 3.223 6.913 3.064 7.326-.178.465-.747.67-1.861.67h-1.605l-3.563-7.323-3.563-7.323h-5.219-5.219v6.834c0 4.773-.147 6.981-.488 7.323-.519.519-2.854.672-3.309.217zm12.914-19.053c1.246-1.246 2.927-1.35 3.291-.203.356 1.123.986 1.022 2.764-.444 3.545-2.922 3.957-7.429.989-10.81-1.968-2.241-3.074-2.532-9.897-2.601l-6.06-.061-.111 7.568-.111 7.568h4.058c3.787 0 4.127-.068 5.076-1.017zm30.442 18.996c-.403-.264-.49-4.267-.407-18.616l.106-18.28h1.831 1.831v18.51 18.51l-1.424.106c-.783.059-1.654-.045-1.937-.23zm19.254-.034c-.123-.199 1.152-7.567 2.833-16.374 4.427-23.188 3.85-20.894 5.258-20.894 1.184 0 1.244.12 6.623 13.014l5.755 13.341c.18.18 2.863-5.722 5.963-13.115 5.023-11.979 5.736-13.443 6.549-13.443.502 0 1.019.173 1.149.383.583.942 7.251 36.152 6.98 36.856-.283.737-2.83.8-3.423.085-.232-.28-1.472-6.641-2.756-14.137s-2.461-13.774-2.616-13.952-2.435 4.764-5.066 10.984l-4.783 11.308.701 1.831c1.2 3.131 1.194 3.448-.065 4.021-1.016.463-1.215.428-1.819-.318l-.679-.837-.57.859c-.548.826-.619.833-1.874.184-.717-.371-1.304-.756-1.304-.856s.449-1.195.996-2.435l.996-2.253-4.923-11.596c-2.707-6.378-5.014-11.505-5.126-11.393s-1.264 6.524-2.562 14.25l-2.607 14.448c-.309.5-3.326.533-3.63.041zm52.379-.077c-.363-.363 1.365-4.166 7.31-16.083l7.786-15.607-1.103-2.248-1.103-2.248 1.321-.806c1.646-1.004 1.799-1.002 2.347.022l.444.83.713-.88c.686-.847.763-.855 2.011-.209 1.539.796 1.588 1.252.395 3.707l-.903 1.858 7.682 15.381c5.066 10.143 7.591 15.619 7.415 16.077-.2.522-.651.664-1.796.57-1.507-.125-1.562-.191-3.881-4.703l-2.353-4.577h-9.126-9.126l-2.353 4.577c-2.271 4.417-2.403 4.581-3.779 4.697-.784.066-1.64-.094-1.902-.356zm24.278-12.767c0-.424-6.885-14.458-7.092-14.458-.124 0-1.875 3.295-3.891 7.323l-3.666 7.323h7.325c4.028 0 7.325-.085 7.325-.188zm24.191 12.705c-.109-.284-.15-8.662-.092-18.619l.106-18.104 1.348-.13c2.6-.249 2.516-.824 2.516 17.257v16.417l8.035.11 8.035.11v1.627 1.627l-9.875.109c-7.679.085-9.919-.006-10.073-.407z"/></svg>