<svg xmlns="http://www.w3.org/2000/svg" viewBox="136 136 480 480"><g fill="var(--main,#000)"><path d="M405.84 302.6c22.73-3.789 37.887-25.102 34.098-47.832s-25.102-37.887-47.832-34.098-37.887 25.102-34.098 47.832c3.789 22.258 25.102 37.887 47.832 34.098zm87.61 111.76c-.473-.945-8.051-28.414-15.629-44.043-6.629-13.262-26.52-35.992-31.258-41.203-6.156-7.106-14.68-11.84-31.258-13.262l-36.465-3.316c-6.156-.473-11.84-2.84-16.574-6.629l-8.523-7.106c-6.156-5.211-10.891-11.84-13.262-19.418l-12.312-37.414c3.789-2.367 6.629-5.684 8.051-9.945 1.894-6.156.945-12.785-2.84-17.523l-7.578-9.473c4.734-8.051 6.629-18.469 3.789-28.414-2.84-11.367-11.367-19.891-21.312-24.152-3.316-1.422-7.106-1.422-10.891-.473l-23.207 6.156c-3.789.945-7.106 3.316-8.996 6.156-8.051 10.891-10.418 26.047-2.84 39.781 3.316 6.156 8.523 10.891 14.207 14.207l-1.422 11.84c-.945 6.156 1.422 12.312 6.156 16.574 3.316 2.84 7.578 4.262 11.84 4.734l12.785 39.309c4.734 14.207 13.262 26.992 25.102 36.465l25.574 20.836 5.684 83.352-20.836 67.25c0 .945-.473 1.894-.473 2.84l-11.367 74.824c-1.894 11.367 5.211 22.73 16.574 24.625.945 0 2.367.473 3.316.473 9.945 0 18.469-7.106 20.363-17.523l10.891-74.812 17.996-58.25 19.418 56.828 13.262 76.246c1.894 9.945 10.418 17.051 19.891 17.051 3.316 0 7.106-.945 10.418-2.84 7.578-4.262 11.367-13.262 9.473-21.785l-12.789-77.195c-.473-.945-.473-1.894-.945-3.316l-23.68-68.668 3.789-52.094c3.316 4.734 6.156 8.523 7.578 11.367 5.211 10.418 11.367 30.781 13.262 37.414 2.367 8.051 9.473 13.262 17.523 13.262 1.422 0 3.316 0 4.734-.473 9.941-2.848 15.621-12.793 12.781-22.262zM282.71 177.09c-3.316 4.734-3.789 10.891-.945 16.102 1.422 2.367.473 5.211-1.894 6.629s-5.211.473-6.629-1.894c-4.734-8.996-4.262-19.418 1.894-26.992.473-.945 1.422-1.422 2.367-1.894 1.422-.473 2.84 0 4.262.945 2.363 2.371 2.84 5.211.945 7.106zm41.199 50.672c-.473 1.422-1.422 2.367-2.367 2.84-4.734-3.789-10.891-4.734-17.051-2.84-5.211 1.894-8.996 5.684-10.891 10.418-1.422 0-2.367-.473-3.316-1.422-1.422-1.422-2.367-3.316-1.894-5.211l1.422-9.473c1.894.473 4.262.473 6.156.473 8.523-.473 16.102-3.316 21.785-8.051l5.684 7.578c.949 1.898.949 3.793.473 5.688z"/></g></svg>