<svg xmlns="http://www.w3.org/2000/svg" viewBox="136 136 480 480"><defs><clipPath id="H"><path d="M228 139.21h328V359H228z"/></clipPath><clipPath id="I"><path d="M175 527h402v85.793H175z"/></clipPath></defs><g fill="var(--main,#000)"><path d="M405.78 252.17c.395-11.914 2.313-18.938 4.203-22.805v23.289a16.46 16.46 0 0 1 11.098 9.371 16.48 16.48 0 0 1-8.477 21.668l-2.621 1.109v36.676c0 4.195 3.398 7.594 7.59 7.594s7.594-3.398 7.594-7.594v-55.434h2.844v55.434c0 4.195 3.402 7.594 7.59 7.594a7.6 7.6 0 0 0 7.594-7.594l.004-92.086c.363.746.73 1.602 1.094 2.602 1.731 4.797 3.188 12.668 3.18 24.953 0 3.387-.109 7.106-.348 11.191-.156 2.711 1.91 5.031 4.617 5.191a3.62 3.62 0 0 0 .289.008 4.92 4.92 0 0 0 4.902-4.629c.25-4.258.359-8.168.363-11.762-.027-18.535-2.984-28.789-7.019-34.961-2.019-3.062-4.379-5.027-6.559-6.113-2.094-1.055-3.937-1.297-5.043-1.309-.074-.004-.148-.012-.223-.012h-23.723c-.078 0-.156.008-.234.012-1.106.016-2.945.254-5.035 1.309-3.305 1.641-6.863 5.223-9.356 11.57-2.402 6.074-4.051 14.734-4.207 27.574l3.508-1.477c2.031-.887 4.172-1.344 6.375-1.371zm34.63-54.93c0 7.633-6.187 13.82-13.82 13.82a13.82 13.82 0 0 1-13.816-13.82 13.82 13.82 0 0 1 13.816-13.816c7.633 0 13.82 6.188 13.82 13.816M222.38 452.71c7.391-6.144 16.879-9.844 27.215-9.844a42.69 42.69 0 0 1 9.777 1.144v-37.508h6.934v39.781c15.227 6.512 25.926 21.641 25.926 39.223 0 13.41-6.231 25.387-15.938 33.207h2.203c.309 0 .605.012.906.031 3.746.082 9.484.883 15.969 4.156 2.75 1.371 5.402 3.113 7.934 5.152l-.004-223.91a494.39 494.39 0 0 0 29.227-3.617c23.281-3.609 52.707-9.797 78.273-20.945 6.051-2.652 8.816-9.711 6.164-15.766s-9.703-8.816-15.758-6.164c-22.309 9.785-50.227 15.832-72.32 19.215-11.059 1.707-20.68 2.773-27.5 3.414l-7.957.66-1.687.113-57.801.004c-.156 0-.305.02-.461.023-2.691.023-7.223.59-12.383 3.191-8.047 3.992-16.719 12.719-22.789 28.184-6.144 15.531-10.273 37.977-10.293 71.879.004 8.762.281 18.289.891 28.664.375 6.359 5.648 11.266 11.938 11.266a11.01 11.01 0 0 0 .715-.023 11.97 11.97 0 0 0 11.246-12.645c-.586-9.945-.848-19.012-.848-27.262-.051-36.234 5.231-56.586 10.418-67.207zm74.12-213.83c0 18.59-15.07 33.66-33.66 33.66s-33.66-15.07-33.66-33.66 15.07-33.66 33.66-33.66 33.66 15.07 33.66 33.66"/><g clip-path="url(#H)"><path d="M324.47 358.34h231.39V139.22H228.23v54.852h5.984v-48.867h315.66v207.15l-225.41.004z"/></g><path d="M244.11 518.71h10.98c15.98-2.621 28.172-16.488 28.172-33.207 0-18.594-15.066-33.66-33.66-33.66s-33.66 15.066-33.66 33.66c-.004 16.719 12.188 30.586 28.168 33.207zm165.56-33.21c0-18.594-15.066-33.66-33.66-33.66s-33.66 15.066-33.66 33.66c0 16.719 12.191 30.586 28.172 33.207h10.98c15.977-2.621 28.168-16.488 28.168-33.207z"/><g clip-path="url(#I)"><path d="M209.14 563.77v49.027h80.922V563.84c.887 1.816 1.781 3.902 2.664 6.336 3.289 9.121 6.164 22.828 7.262 42.617h25.609c1.394-25.109 5.703-40.336 9.953-49.027v49.027h80.922v-48.961c.887 1.82 1.781 3.906 2.664 6.34 3.289 9.121 6.164 22.828 7.262 42.617h25.609c1.394-25.109 5.703-40.336 9.953-49.027v49.027h80.922v-48.961c.887 1.82 1.781 3.906 2.664 6.34 3.289 9.121 6.164 22.828 7.262 42.617h23.965c-1.727-33.918-8.227-54.117-16.652-66.992-4.914-7.461-10.664-12.242-15.977-14.895-5.109-2.582-9.606-3.156-12.305-3.195-.176-.008-.348-.027-.527-.027h-22.746c-2.012.293-4.062.449-6.152.449s-4.144-.156-6.152-.449h-22.742c-.199 0-.395.02-.594.031-2.703.039-7.168.633-12.242 3.191-7.492 3.711-15.516 11.531-21.488 25.062-1.703-3.828-3.543-7.199-5.488-10.168-4.914-7.461-10.664-12.242-15.977-14.895-5.109-2.582-9.606-3.156-12.301-3.195-.176-.008-.348-.027-.527-.027h-57.797c-.199 0-.395.02-.594.031-2.703.039-7.168.633-12.242 3.191-7.492 3.711-15.516 11.531-21.488 25.062-1.703-3.828-3.543-7.199-5.488-10.168-4.914-7.461-10.664-12.242-15.977-14.895-5.109-2.582-9.606-3.156-12.301-3.195-.176-.008-.348-.027-.527-.027l-57.785.008c-.203 0-.398.02-.594.031-2.703.039-7.164.633-12.242 3.191-8.051 3.988-16.723 12.715-22.793 28.188-4.977 12.566-8.625 29.672-9.844 53.703h23.957c1.394-25.113 5.703-40.332 9.953-49.027z"/></g><path d="M536.08 485.5c0 18.594-15.07 33.66-33.66 33.66s-33.66-15.066-33.66-33.66 15.07-33.66 33.66-33.66 33.66 15.07 33.66 33.66M334.95 191.37h34.41v5.984h-34.41zm127.77-19.07h34.41v5.984h-34.41zm-212.43-13.18h65.824v5.984H250.29z"/><path d="M250.29 173.34h40.527v5.984H250.29zm141.5 51.95v-2.996h-29.453l-9.574-21.551-2.731 1.215h-.004l10.363 23.332zm57.09-25.69h22.914l9.789-16.441-2.566-1.527-.004-.004-8.914 14.98H448.88zm41.15 16.08h34.41v5.984h-34.41zm18.86 10.87l-2.57-1.527v-.008l-8.918 14.98h-32.066v2.992h33.77zm-28.34 74.28h34.41v5.984h-34.41zm-24.69-18.33h32.07l8.918 14.977 2.57-1.531-9.785-16.438H455.86zm-112.7 47.62h34.41v5.984h-34.41zm27.03-18.32h32.078v-2.992h-33.773l-9.785 16.441 2.566 1.531v-.004z"/></g></svg>