<svg xmlns="http://www.w3.org/2000/svg" viewBox="136 136 480 480"><defs><clipPath id="A"><path d="M139.21 252h473.58v273H139.21z"/></clipPath></defs><g fill="var(--main,#000)"><path d="M278.34 416.74c0-22.539-18.273-40.809-40.805-40.809-22.539 0-40.809 18.27-40.809 40.809 0 18.211 11.93 33.629 28.395 38.879 3.914 1.25 8.082 1.926 12.41 1.926 5.527 0 10.801-1.106 15.609-3.098 14.789-6.129 25.199-20.699 25.199-37.707zm-40.805 19.949a19.96 19.96 0 0 1-19.953-19.953c0-11.02 8.93-19.953 19.953-19.953 11.016 0 19.949 8.934 19.949 19.953s-8.934 19.953-19.949 19.953z"/><g clip-path="url(#A)"><path d="M589.8 478.45c-1.457 0-2.875.152-4.254.41l-13.219-13.219 27.648-1.156a12.26 12.26 0 0 0 11.734-12.758 12.26 12.26 0 0 0-12.758-11.734l-281.12 11.75c-7.461-6.129-12.133-13.969-15.039-21.047a67.06 67.06 0 0 0 1.473-13.957c0-31.141-21.328-57.297-50.176-64.664l214.12 7.063c.586 7.277 5.051 13.254 11.352 14.332.844.145 1.68.18 2.512.141-7.277-4.129-9.906-13.395-5.844-20.738 2.703-4.879 7.844-7.906 13.422-7.906 1.609 0 3.203.289 4.734.785-2.016-3.441-5.148-5.898-8.965-6.547-6.617-1.133-13.113 3.516-15.879 10.785l-228.92-7.555a249.41 249.41 0 0 1 6.094-5.398c7.543-6.488 14.348-11.594 19.223-15.051a204.13 204.13 0 0 1 5.027-3.461l5.102 10.262a6.13 6.13 0 0 0 8.231 2.715l8.211-4.141a6.13 6.13 0 0 0 2.715-8.231l-31.344-63.035c-1.523-3.023-5.211-4.238-8.234-2.715l-8.211 4.137a6.13 6.13 0 0 0-2.715 8.231l15.25 30.676c-4.144 2.637-25.137 16.348-46.5 38.16-11.781 12.059-23.707 26.609-32.859 43.395-9.133 16.766-15.516 35.926-15.52 56.746-.008 12.328 2.301 25.172 7.398 38.082l-6.047 6.047c-1.379-.258-2.797-.41-4.254-.41-12.695 0-22.984 10.289-22.984 22.984s10.293 22.984 22.984 22.984 22.984-10.293 22.984-22.984c0-4-1.023-7.758-2.82-11.035l8.824-8.828 26.469-1.106a66.68 66.68 0 0 0 19.879 3.012c8.875 0 17.336-1.746 25.082-4.891l283.38-11.848 23.656 23.656c-1.797 3.277-2.82 7.035-2.82 11.035 0 12.691 10.289 22.984 22.984 22.984s22.984-10.293 22.984-22.984c.004-12.684-10.289-22.973-22.984-22.973zm-352.27-14.949c-9.262 0-17.891-2.703-25.152-7.352-12.016-7.684-20.277-20.707-21.449-35.723-.094-1.219-.156-2.445-.156-3.687 0-14.273 6.402-27.043 16.488-35.621 8.16-6.941 18.723-11.137 30.273-11.137 25.824 0 46.762 20.938 46.762 46.762 0 15.16-7.219 28.629-18.406 37.176-7.871 6.004-17.695 9.582-28.359 9.582z"/></g><path d="M543.71 228.39c18.605 4.027 30.422 22.379 26.391 40.984s-22.379 30.422-40.984 26.391-30.422-22.379-26.391-40.984 22.379-30.422 40.984-26.391m-5.07 165.91h-.016c-6.922-.039-14.332-1.644-24.043-5.207-5.969-2.211-12.496-5.098-19.719-8.715-1.66 4.32-3.484 8.559-5.496 12.648-16.855-5.172-41.246-10.664-69.18-10.73-30.148-.031-64.871 6.66-96.961 28.219-8.781 5.898-11.121 17.797-5.227 26.582 3.699 5.504 9.754 8.481 15.922 8.481 3.672 0 7.383-1.055 10.66-3.254 24.406-16.379 50.887-21.688 75.605-21.715 21.254-.016 40.898 4.066 55.027 8.188 7.063 2.055 12.746 4.098 16.57 5.598a123.83 123.83 0 0 1 4.297 1.758l.996.441c.098.043.16.074.188.086a19.12 19.12 0 0 0 9.164 1.801c9.039 1.004 18.727-1.93 27.859-14.348 7.438-11.914 12.91-22.164 17.066-32.34-.59.262-1.18.512-1.781.723-3.312 1.188-6.902 1.785-10.934 1.785z"/><path d="M534.84 363.21l-.656-2.434c-.809-2.703-2.047-5.914-3.578-9.316-3.023-6.691-6.32-12.121-6.457-12.348-.039-.062-.07-.121-.102-.172l.016.035a15.36 15.36 0 0 1 5-21.09c2.418-1.5 5.199-2.285 8.031-2.285a15.24 15.24 0 0 1 13.051 7.277l.031.043.051.094.203.344c4.914 8.227 9.047 16.879 11.816 24.699l.574-4.555c2.629-23.578-11.473-38.113-24.691-40.762s-26.227 11.391-28.773 27.055l-5.234 20.891c8.035 4.211 15.121 7.461 21.105 9.676 4.266 1.594 7.434 2.418 9.613 2.848zm-55.92-8.85c-3.277 5.922-1.133 13.387 4.789 16.664l2.844 1.551a324.92 324.92 0 0 0 9.387 4.914c7.356 3.695 13.879 6.578 19.695 8.734 8.883 3.258 16.145 4.981 23.004 5.016 3.375 0 6.703-.457 9.926-1.629 1.578-.547 3.098-1.336 4.516-2.277 2.949-1.949 5.453-4.606 6.981-7.523 2.332-4.316 2.93-8.652 2.945-12.539-.02-4.297-.746-8.305-1.773-12.152a91.99 91.99 0 0 0-.922-3.203c-4.539-14.254-12.543-26.969-12.777-27.426-3.555-5.762-11.109-7.551-16.871-3.996a12.26 12.26 0 0 0-3.996 16.871v-.004s.012.027.094.156c.594.973 3.762 6.332 6.629 12.684 1.438 3.172 2.793 6.586 3.719 9.68.844 2.746 1.293 5.262 1.371 6.844-2.383-.004-7.293-.863-14.328-3.496-5.578-2.059-12.512-5.172-20.848-9.512l-7.191-3.859-.527-.289a12.27 12.27 0 0 0-16.664 4.793z"/></g></svg>