<svg xmlns="http://www.w3.org/2000/svg" viewBox="136 136 480 480"><defs><clipPath id="E"><path d="M139.21 242h86.789v354H139.21z"/></clipPath><clipPath id="F"><path d="M338 396h274.79v200H338z"/></clipPath></defs><g fill="var(--main,#000)"><path d="M239.79 157.64c22.551 5.25 36.574 27.789 31.324 50.34s-27.789 36.57-50.344 31.32-36.574-27.789-31.324-50.34 27.793-36.57 50.344-31.32"/><g clip-path="url(#E)"><path d="M175.29 287.37c-2.457-4.527-3.004-9.668-1.562-14.539s4.688-8.887 9.148-11.309c2.777-1.516 5.918-2.316 9.07-2.316 6.914 0 13.293 3.758 16.645 9.809a27.33 27.33 0 0 0 .559.898c.555.855 1.496 2.227 2.863 3.961 1.656 2.102 4.078 4.898 7.281 7.949 2.297-16.934-4.793-34.785-18.898-38.301-15.91-3.969-38.977 4.676-48.359 31.965-12.684 37.602-15.41 62.074-10.59 103.48 3.938 20.262 14.594 28.238 26.359 31.223 4.746 15.633 10.668 41.363 10.625 72.238-.004 24.637-3.684 52.508-14.473 81.637-4.465 12.07 1.691 25.473 13.758 29.941 2.668.988 5.398 1.457 8.09 1.457 9.469 0 18.371-5.816 21.852-15.215 12.965-35.004 17.375-68.543 17.371-97.816-.059-46.688-11.02-82.598-16.945-98.672-2.586-19.34-.305-40.621 3.027-60.199-3.445-2.227-6.562-4.469-9.312-6.641-16.543-13.016-24.473-25.906-26.508-29.551z"/></g><path d="M318.74 307.57l-.504.074c-11.422 2.238-21.734 3.18-31.039 3.18-31.246-.062-51.406-10.434-64.434-20.574-6.481-5.078-11.07-10.148-13.961-13.824-1.445-1.836-2.465-3.32-3.078-4.269a21.9 21.9 0 0 1-.621-1c-.016-.023-.027-.043-.039-.062l-.051-.094c-3.965-7.164-12.969-9.797-20.168-5.875a14.91 14.91 0 0 0-5.977 20.223h-.004c.676 1.207 8.176 14.746 25.484 28.359 17.191 13.586 44.559 26.938 82.562 26.938h.285c11.332 0 23.574-1.156 36.77-3.742 5.703-1.113 9.988-5.344 11.473-10.574-6.691-5.121-12.371-11.492-16.699-18.758z"/><g clip-path="url(#F)"><path d="M586.45 424.62h-80.777c-3.316-9.582-11.016-18.086-27.473-22.676-33.207-6.598-55.68-7.336-83.574-2.219v35.773c0 10.484-8.527 19.016-19.012 19.016a19.04 19.04 0 0 1-19.012-19.016v-23.5c-14.719 10.051-20.152 25.684-18.133 37.855 2.609 15.73 23.078 24.438 41.605 21.367h183.64l2.488 101.53c.305 12.668 10.68 22.73 23.277 22.73l.582-.008c12.863-.316 23.035-10.996 22.723-23.859l-3.047-124.26c-.309-12.656-10.633-22.734-23.285-22.734z"/></g><path d="M329.58 429.49c1.805 23.09-15.449 43.273-38.539 45.078s-43.277-15.445-45.082-38.535 15.449-43.273 38.539-45.082 43.277 15.449 45.082 38.539m-84.46 56.95H548v24.23H245.12zM360.7 435.5c0 8.238 6.672 14.914 14.91 14.914a14.92 14.92 0 0 0 14.914-14.914v-97.238a66.1 66.1 0 0 1-14.914 1.715 66.07 66.07 0 0 1-14.91-1.715zm14.92-102.55c32.66 0 59.141-26.477 59.141-59.141s-26.48-59.141-59.141-59.141-59.141 26.477-59.141 59.141 26.48 59.141 59.141 59.141zm-23.422-59.141c0-12.934 10.484-23.422 23.422-23.422s23.422 10.484 23.422 23.422-10.484 23.422-23.422 23.422-23.422-10.488-23.422-23.422zm40.982.001a17.57 17.57 0 0 1-17.566 17.566c-9.703 0-17.566-7.863-17.566-17.566s7.863-17.566 17.566-17.566a17.57 17.57 0 0 1 17.566 17.566"/></g></svg>