<svg xmlns="http://www.w3.org/2000/svg" viewBox="0 0 512 111"><path d="M147.3,5.5c.1-1.6.2-2.9.3-4.4h30.6l.3,4.5h33.2c5.3,0,6.4,1.2,6.4,6.4,0,12.2.1,24.3.1,36.5.1,3.5-1.5,5.1-5,5.3H208c-.1,1.6-.2,3-.3,4.7H194.1c-.1-1.6-.2-3-.2-4.6H132l-.3,4.5H118.6l-.6-4.6h-6.1c-3.1-.1-4.5-1.6-4.5-4.7.1-12.6.3-25.2.2-37.8,0-3.7,2.1-6,6-5.9,10.5.3,21.1.1,31.6.1ZM111.4,9.4V50.2h103V9.4Z" fill="#fa4717"/><path d="M111.4,9.4V50.2h103V9.4Z" fill="#fff"/><g fill="#fa4717"><path d="M123,19.1v7.8l-2.5,2.5-.8-.8V17.9Zm-3.3,22.7V31l.8-.8,2.5,2.5v7.8Zm14.4,2.8H121.7a2.4,2.4,0,0,1-2-2l3.3-1.3h9.9Zm0-26.3H123L119.7,17a2.7,2.7,0,0,1,2.1-2h13.5Zm-.4,9.9,1.6,1.6-1.6,1.7H123l-1.7-1.7,1.7-1.6Zm2.5,2,.8.8V42.6a2.6,2.6,0,0,1-2.1,2l-1.2-3.3V32.7Z" fill="#fa4717"/><path d="M144.4,24.9h-3.3V21.6h3.3Zm0,13.1h-3.3V34.8h3.3Z"/><path d="M151.8,19.1v7.8l-2.5,2.5-.8-.8V17.9Zm-3.3,22.7V31l.8-.8,2.5,2.5v7.8Zm14.4,2.8H150.6a2.6,2.6,0,0,1-2.1-2l3.3-1.3h9.9Zm-1.2-26.3h-9.9L148.5,17a2.7,2.7,0,0,1,2.1-2h12.3Zm.8,8.6V18.3l1.2-3.3a2.7,2.7,0,0,1,2.1,2V28.6l-.8.8Zm2.5,3.3.8.8V42.6a2.6,2.6,0,0,1-2.1,2l-1.2-3.3V32.7Z"/><path d="M173.2,19.1v7.8l-2.5,2.5-.8-.8V17.9Zm-3.3,22.7V31l.8-.8,2.5,2.5v7.8Zm14.4,2.8H172a2.6,2.6,0,0,1-2.1-2l3.3-1.3h9.9Zm-1.2-26.3h-9.8L170,17a2.4,2.4,0,0,1,2-2h12.3Zm.8,8.6V18.3l1.3-3.3a2.6,2.6,0,0,1,2,2V28.6l-.8.8Zm2.5,3.3.8.8V42.6a2.4,2.4,0,0,1-2,2l-1.3-3.3V32.7Z"/><path d="M192.9,16.9v4l-1.3,1.2-.4-.4V16.3Zm0,6.9v4.4l-.7,1.7a1.4,1.4,0,0,1-1-1.1V23l.4-.5Zm5-7.3h-5l-1.7-.6a1.5,1.5,0,0,1,1.1-1.1h6.2Zm.4,5,.8.8-.8.9h-5.4l-.9-.9.9-.8Zm0-.6V16.5l.6-1.7a1.5,1.5,0,0,1,1.1,1.1v5.8l-.5.4Zm1.2,1.6.5.5v5.8a1.5,1.5,0,0,1-1.1,1.1l-.6-1.7V23.8Z"/><path d="M203.7,16.9v4l-1.2,1.2-.5-.4V16.3Zm0,6.9v4.4l-.6,1.7a1.5,1.5,0,0,1-1.1-1.1V23l.5-.5Zm5-7.3h-5l-1.6-.6a1.4,1.4,0,0,1,1-1.1h6.2Zm-1.4,5.2-.9.8-.8-.8V16.9h1.7Zm1.8-.8V16.5l.7-1.7a1.4,1.4,0,0,1,1,1.1v5.8l-.4.4Zm1.3,1.6.4.5v5.8a1.4,1.4,0,0,1-1,1.1l-.7-1.7V23.8Z"/></g><g fill="#daac1b"><path d="M33.7,13.5H25.3V57.6H8.9V13.5H.5V.1H33.7Z"/><path d="M55.1,57.6V34.3H51.5V57.6H35.1V.1H51.5V20.9h3.6V.1H71.5V57.6Z"/><path d="M73.7,57.6V.1H103V13.5H90.1v8.6h11V34.4h-11v9.8H103V57.6Z"/><path d="M15.8,109.9,12.4,88.2v21.7H0V60.7H17.1l2.5,20.8,2.5-20.8H39.2v49.2H26.4v-21l-2.9,21Z"/><path d="M61,109.9l-.9-7.3H54.4l-.8,7.3H40.1l8.8-49.2H66l8.9,49.2ZM55.5,93.1H59L57.2,77.7Z"/><path d="M95,109.9,88.7,91.6v18.3H75.8V60.7H86.7l6.1,18.4V60.7h12.9v49.2Z"/><path d="M122.6,60.7v49.2H108.5V60.7Z"/><path d="M144.4,109.9l-.9-7.3h-5.7l-.8,7.3H123.5l8.8-49.2h17.1l8.9,49.2Zm-5.5-16.8h3.5l-1.8-15.4Z"/><path d="M188.4,79.4H174.8V73c0-1.3-.5-1.9-1.5-1.9s-1.4.6-1.4,1.9V97.6c0,1.2.5,1.8,1.4,1.8s1.5-.6,1.5-1.8V90.2h13.6V96c0,4.9-1.3,8.5-4,11.1s-6.4,3.8-11.3,3.8-8.6-1.3-11.3-3.8-3.9-6.2-3.9-11.1V74.5q0-7.4,3.9-11.1c2.6-2.5,6.4-3.7,11.3-3.7s8.7,1.2,11.4,3.7,3.9,6.2,3.9,11.1Z"/><path d="M220.3,76.5H206.8V72.3c0-1.3-.4-1.9-1.3-1.9s-1.4.6-1.4,1.9v2a3.8,3.8,0,0,0,.6,2.4,8.7,8.7,0,0,0,2.7,1.8l4.3,2.4a24,24,0,0,1,6.8,5.3,12.8,12.8,0,0,1,2.3,7.9v3.1a13.5,13.5,0,0,1-.8,5,13.1,13.1,0,0,1-2.4,4.3,11,11,0,0,1-4.9,3.2,21.6,21.6,0,0,1-7.6,1.2c-5.6,0-9.6-1.2-12.1-3.6a11.7,11.7,0,0,1-3.6-8.7V93.4h14.3v4.8q0,1.8,1.5,1.8t1.5-1.8v-2a4.1,4.1,0,0,0-.7-2.7,6.2,6.2,0,0,0-2.4-1.8l-4.4-2.5c-6-3.3-9-7.7-9-13.1V72.7a12.6,12.6,0,0,1,3.7-9.3c2.5-2.5,6.3-3.7,11.4-3.7s8.9,1.2,11.3,3.6a11.2,11.2,0,0,1,3.7,8.3Z"/><path d="M286.4,25.9H270.1v85H238.6v-85H222.3V.1h64.1Z"/><path d="M289.6,110.9V.1h56.3V25.9H321.2V42.5h21.1V66.3H321.2V85.1h24.9v25.8Z"/><path d="M392.1,110.9l-1.9-16.5H377.4l-1.9,16.5H345.1L365,.1h38.5l19.9,110.8ZM379.7,73.1h8l-4.2-34.5Z"/><path d="M459.3,110.9l-7.6-48.8v48.8H423.9V.1h38.4l5.7,47,5.6-47H512V110.9H483.4V63.7l-6.7,47.2Z"/></g></svg>