<svg xmlns="http://www.w3.org/2000/svg" width="512" height="223" viewBox="0 0 512 223"><path fill="#090b20" d="M206.525 57.842h-14.906l4.328-10.478h40.874l-4.177 10.478h-13.872l-36.818 89.866h-12.247zM238.675 130.74l26.817-65.373c2.235-5.704 1.042-8.558-3.582-8.558h-3.101c-2.263 0-4.11.566-5.537 1.697-1.434 1.131-2.705 3.074-3.816 5.829l-26.816 65.37c-2.432 5.708-1.238 8.56 3.583 8.56h2.952c2.261 0 4.132-.566 5.614-1.697 1.476-1.131 2.773-3.074 3.886-5.828m-.625-68.619c2.225-5.508 4.993-9.467 8.303-11.88 3.308-2.41 7.523-3.613 12.638-3.613h6.493c6.099 0 10.248 1.746 12.445 5.237 2.198 3.493 2.075 8.19-.364 14.093l-27.485 66.994c-2.22 5.411-5.01 9.349-8.372 11.805-3.361 2.46-7.6 3.69-12.716 3.69H222.5c-6 0-10.101-1.746-12.296-5.238-2.2-3.493-2.075-8.19.362-14.093zM299.203 95.472c2.262 0 4.107-.567 5.54-1.697 1.428-1.132 2.7-3.074 3.813-5.831l8.992-21.838c2.233-5.705 1.087-8.56-3.436-8.56h-8.706l-15.5 37.926Zm-2.028-48.109h20.512c6.099 0 10.224 1.748 12.372 5.241 2.146 3.492 1.948 8.288-.6 14.387l-8.837 21.692c-2.554 6.198-5.462 10.576-8.73 13.133-3.268 2.56-7.56 3.837-12.871 3.837h-13.28l-17.314 42.056H256.03zM341.342 62.12c2.225-5.507 4.992-9.466 8.303-11.877 3.307-2.41 7.523-3.615 12.64-3.615h6.048c6.1 0 10.223 1.747 12.371 5.238 2.146 3.492 2.003 8.19-.437 14.091l-7.007 17.266h-12.394l7.182-17.856c2.428-5.704 1.285-8.558-3.439-8.558h-2.507c-2.264 0-4.11.567-5.537 1.697-1.434 1.131-2.707 3.074-3.816 5.828l-26.816 65.371c-2.433 5.708-1.238 8.56 3.581 8.56h2.659c2.261 0 4.106-.566 5.538-1.697 1.43-1.13 2.7-3.074 3.815-5.829l10.47-25.085h-9.591l4.325-10.478h21.545l-14.813 35.858c-2.56 6.397-5.5 10.896-8.82 13.502-3.32 2.608-7.782 3.911-13.39 3.911h-5.46c-6 0-10.1-1.746-12.296-5.238-2.198-3.492-2.075-8.19.363-14.093zM402.208 95.323c2.262 0 4.107-.564 5.54-1.697 1.43-1.13 2.699-3.024 3.808-5.682l8.842-21.838c2.43-5.704 1.288-8.56-3.437-8.56h-8.854l-15.49 37.777Zm-2.33-47.959h20.807c6.098 0 10.222 1.747 12.372 5.24 2.146 3.493 2 8.188-.44 14.092l-9.501 23.315c-3.55 8.559-8.655 13.577-15.313 15.051l-5.98 42.646h-12.541l6.983-42.054h-7.822l-17.316 42.054h-12.393zM452.558 47.364h12.395l-41.145 100.344h-12.394zM479.67 95.472c2.262 0 4.11-.567 5.54-1.697 1.43-1.132 2.702-3.074 3.816-5.831l8.99-21.838c2.233-5.705 1.087-8.56-3.437-8.56h-8.706l-15.497 37.926Zm-2.028-48.109h20.512c6.1 0 10.224 1.748 12.373 5.241 2.146 3.492 1.949 8.288-.6 14.387l-8.835 21.692c-2.556 6.198-5.465 10.576-8.733 13.133-3.268 2.56-7.556 3.837-12.868 3.837h-13.283l-17.314 42.056H436.5zM0 148.316 79.005.455 49.77 121.083h47.686l-6.758 27.233Z"/><path fill="#ceff00" d="M166.782 74.684 87.776 222.545l29.237-120.628H102.71c-16.311 0-29.927-13.928-26.626-27.233zM179.54 39.731h-22.068l-7.62 24.729h19.943ZM140.693 39.731H120.75l-7.62 24.729h19.942zM103.97 39.731H84.029L78.533 64.46H96.35z"/></svg>