<svg xmlns="http://www.w3.org/2000/svg" viewBox="0 0 512 162"><g fill="#282525"><path d="M77.4,135.1c27.1-1.3,50.4-25.6,50.4-53h-.5c-9.1,36.4-47.5,52.4-79.5,32.6-31-24-27.4-62.5,5.5-82.1C-7.5,53.9,11.9,140.3,77.4,135.1Z"/><path d="M158.6,69.1c10.4.8,21.3,0,31.9.3V28.2H177.9V59.9h-8.7V28.2H156.1c-.3,10.7,0,21.5,0,32.4C155.9,63.6,156.3,66.8,158.6,69.1Z"/><path d="M67.9,99.4c-1.5-18.8-.8-37.8-1.2-56.6H46.8c0,15.5.2,30.8.6,46.1a35.6,35.6,0,0,0,5.2,17.3c10.3,16.4,47.6,15.9,54.8-3.4-.1-.1-.3-.4-.4-.3-5.5,6.2-14.2,8.5-25.2,7.8-5.5,0-7.2-1.2-9.8-4.1S68.1,102.2,67.9,99.4Z"/><path d="M78.5,107.3c5.3.2,11,.9,16.1-.7s13.4-7.5,14.7-15.2c.1-16.2.1-32.3.1-48.6H92.3c-.5,17.2.1,34.5-1.3,51.8-1,9.6-12,6.9-18.8,7.8v.3C73.9,104.8,75.6,107.1,78.5,107.3Z"/><path d="M141.2,50.1C135,38,118.8,24.9,105.8,20.6a67.3,67.3,0,0,0-11.9-3.2,77.6,77.6,0,0,0-32.5,2.1C51.3,22.3,36,32.4,32.4,37.1a73.7,73.7,0,0,1,12.4-6.6c17.6-7.6,32-6.1,36.1-5.3C95.8,28,109.2,34,118.7,46.4c7.6,9.8,13.4,20.3,13.2,33.2s.6,15.9-4.9,26.4c-11.2,24.6-39.3,38.6-65.8,34.2l-7.7-1.4a6.6,6.6,0,0,0,3.9,2.5C105.5,159.1,159.2,119,148.1,67,146.8,61,143.9,55.6,141.2,50.1Z"/><path d="M246.6,29.9h.4l16.3,39.5c4.3,0,8.6-.1,12.9,0a1.9,1.9,0,0,0,2-1.4c5.2-12.7,10.4-25.5,15.7-38.1h.5V69.2c9.8.4,19.8.1,29.6.2,1.6-.3,4.2-7.4,5.1-9.3H307.8v-8H325V44.8H307.8V37.4h15.8a1.5,1.5,0,0,0,1.7-1c1.2-2.7,2.6-5.2,3.7-8-15.7-.2-31.5-.1-47.3-.3a1.3,1.3,0,0,0-1.5,1.1c-3.5,7.2-6.3,14.6-9.9,21.6-3.8-7-6.3-14.3-9.5-21.5a1.4,1.4,0,0,0-1.6-1.2c-8.7.1-17.3-.1-25.9.1V69.3h13.3Z"/><path d="M370.3,60.2c1.1,2.9,2.6,5.3,3.8,8.1a1.6,1.6,0,0,0,1.7,1.1c8.7-.2,17.4.5,26-.6a3.3,3.3,0,0,0,3.2-3.4h0c.1-5.6.1-11.1-.1-16.7.1-3.6-3.8-3.8-6.7-3.9H383.7V37.4h21.9V28.2H379.7c-3.2.3-9.1-.4-9.2,4.1-.4,25.6-1.5,18.6,21.7,20V60C384.7,60,377.8,60,370.3,60.2Z"/><path d="M345,37.4h8.6v7.2c-2.6.4-5.2-.2-7.7.6,3,7.9,7,15.6,10.3,23.5,1.2,1.4,9.3.5,11.5.5-2.5-5.8-4.8-11.3-7.2-17.1,2.7,0,5.4.3,5.4-3.2.2-5.9.2-11.8.1-17.8.2-2.7-2.7-2.6-4.7-2.8-9.8,0-19.7-.2-29.5-.1V69.3H345Z"/><path d="M208,37.5h8.6V69.3h13.2c0-12.4.4-24.9-.6-37.2-.2-3-1-3.6-4-3.7-10.2-.1-20.4-.3-30.5-.2V69.3H208Z"/><path d="M482.8,60H466.1V28.2H453.4V67.8H453L436.5,29.3c-.3-.9-.6-1.2-1.6-1.2h-11a1.8,1.8,0,0,0-2.1,1.4L405,68.8c4.4.9,9,.3,13.4.6a1.4,1.4,0,0,0,1.5-1c3.1-7.7,6-15.3,9.4-22.9,2.1,5.1,4.1,9.7,6.2,14.5h-9.8v9.2h62.5c-1.1-2.9-2.6-5.4-3.8-8.2A1.4,1.4,0,0,0,482.8,60Z"/><path d="M485.9,112.6q.2-8.2,0-16.5c0-2.1-1.3-3.2-3.3-3.4-14.1-.8-28.1-.6-42.3-.7v41.7h17.3V102h11.9v7.2l-10.4.4c4,8,9.2,15.7,13.6,23.7a1.2,1.2,0,0,0,1,.5c4.8-.2,9.5.4,14.3-.4l-10-16.6C481.2,116.7,485.8,116,485.9,112.6Z"/><path d="M485.8,85c1.3,0,1.6-.5,1.5-1.7a52,52,0,0,1,0-5.6c.1-2-.3-1.5-1.6-1.5H437.8c0-.4-.1-.8-.1-1.1.5-2.4-4.1-.9-5.6-1.3s-.6,2.3-.9,3.3H211.4c0-1.3,0-2.6-.1-3.7a25.6,25.6,0,0,0-3.9-.3c-2.3,0-2.3,0-2.6,2.4h-48c-1.2,0-1.6.2-1.5,1.4v5.9c-.1,1.2.3,1.5,1.5,1.5h48.1c0,1-.2,2,.7,2.3h5.7a18.7,18.7,0,0,1,.3-3.4H431.2c.4,1.3-.9,4.3,1.3,4s5.3,1.2,5.3-2.3Z"/><path d="M156.7,102h14.6v31.7h16.6V101.9h14.6V92.1H156.7Z"/><path d="M511.7,32.9a19.8,19.8,0,0,0-1.7-8c-4.6-9.3-11.6-17.7-21.4-21.6a46.1,46.1,0,0,0-11-3.1H35C30.2.2,24.6,2.4,20.5,4.7,9.2,11.4,0,22.9,0,36.6c.2,30.2-.2,60.5.3,90.9a22.5,22.5,0,0,0,.6,6.3,38,38,0,0,0,3.3,7.8c2.7,5.1,7.1,8.9,11.3,12.9a19,19,0,0,0,3.3,2.2,78.3,78.3,0,0,0,7.3,3.3,21.8,21.8,0,0,0,8.6,1.8H481.3a7.9,7.9,0,0,0,3-.5,59.5,59.5,0,0,0,12.4-6.7c6.3-5,13.2-12.9,14.5-21.1a53.5,53.5,0,0,0,.7-10.6C511.8,92.8,512.3,62.8,511.7,32.9ZM477.7,153q-211.6.3-423.3-.4c-17.7.1-30.2,1.9-41.3-15.1a18.2,18.2,0,0,1-2.8-9.6c-.1-30.6-.1-61.2-.2-91.7a19.7,19.7,0,0,1,2.2-9.6C17.1,17.1,27.2,9.9,33.4,9.9l222.7-.3c74.4.5,149.3-1.3,223.6.6,8.8,3,16.5,8.3,20.3,17a30.2,30.2,0,0,1,2.4,12.9c0,23.5-.1,47-.1,70.5C502.9,131.9,500.6,146.4,477.7,153Z"/><path d="M317.8,132.9h-.3L295.5,93a1.8,1.8,0,0,0-1.9-1H277.9a1.8,1.8,0,0,0-1.9,1c-7.1,13-14.1,26-21.3,38.8l-8.9-14.9c3.7-.7,7.3-.8,7.8-5.6s0-8.1.3-12.2a6.3,6.3,0,0,0-5.5-7.1H208v41.7h17.2V102H237v7.2l-11,.4c4.5,8,9.5,15.6,14.3,23.5a2,2,0,0,0,1.5.7h29.4a1.6,1.6,0,0,0,1.8-1.1l12.4-23.3c2.7,4.9,5.2,9.8,7.8,14.5l-.3.5H281.2v9.3h53.1V92H317.8Z"/><path d="M385.2,95.8a3,3,0,0,0-2.9-3.1h-.1c-14.1-.7-28.3-.5-42.4-.7v41.7h17.3V102H369v31.7h16.7C385.5,121.1,386,108.4,385.2,95.8Z"/><path d="M408.4,116.5h23.1v-7.3H408.4v-7.3c7.7-.5,16,.5,23.4-.8,1.7-2.9,3.5-5.9,5.2-9.1H391.1v41.8h39c.5,0,1.3-.1,1.5-.4l5.4-8.7H408.4Z"/></g></svg>